<svg class="img-fluid" id="outputsvg" xmlns="http://www.w3.org/2000/svg" style="transform: none; transform-origin: 50% 50%; cursor: move;" width="333" height="333" viewBox="-900 -900 5400 5400">
	<g id="l3dhq3HHp4sumHwPucgq6g8" fill="rgb(250,250,250)" style="transform: none;">
		<g style="transform: none;">
		</g>
	</g>
	<g id="l58b3I2CCrxo6vVRWwalPk0" fill="rgb(233,233,233)" style="transform: none;">
		<g style="transform: none;">
			<path id="p15bbd7ITd" d="M1370 3199 c-509 -49 -866 -293 -1001 -686 -25 -72 -56 -223 -64 -310 -7 -70 -6 -73 14 -73 18 0 21 6 21 38 0 94 51 285 105 392 40 80 137 212 191 261 83 74 151 119 179 119 34 0 95 21 95 32 0 4 9 8 19 8 13 0 21 8 23 22 2 17 16 27 53 41 32 12 51 15 53 8 2 -6 19 -11 38 -11 28 0 34 4 35 23 0 12 3 16 6 10 2 -7 20 -13 39 -13 27 0 34 4 34 19 0 17 18 31 41 31 5 0 9 -7 9 -15 0 -11 12 -15 45 -15 41 0 45 2 45 24 0 22 4 23 89 28 50 3 142 3 205 0 114 -5 116 -5 116 -28 0 -22 4 -24 55 -24 44 0 55 3 55 16 0 13 7 15 31 10 17 -3 38 -6 45 -6 8 0 14 -9 14 -20 0 -12 8 -21 23 -25 12 -2 53 -11 90 -20 83 -18 114 -19 120 -2 3 6 6 3 6 -9 1 -15 11 -24 40 -32 21 -7 48 -12 59 -12 11 0 22 -4 24 -8 6 -14 110 -52 144 -52 27 0 34 -4 34 -20 0 -16 7 -20 38 -20 84 0 253 -154 341 -311 35 -63 71 -161 71 -196 0 -16 6 -23 20 -23 23 0 25 13 10 89 -57 300 -342 556 -749 672 -253 73 -626 111 -861 88z"></path>
			<path id="pQhGZkD1N" d="M1595 2356 c-41 -13 -86 -34 -95 -45 -3 -3 -14 -11 -25 -17 -11 -6 -21 -20 -23 -32 -2 -12 -12 -22 -25 -24 -24 -3 -80 -87 -98 -148 -6 -19 -13 -93 -16 -165 -4 -116 -2 -140 20 -225 26 -99 72 -192 138 -279 41 -54 49 -81 24 -81 -10 0 -15 -10 -15 -29 0 -31 1 -31 -95 -47 -48 -8 -176 -66 -203 -91 -10 -10 -27 -23 -38 -29 -10 -6 -20 -21 -22 -33 -2 -13 -11 -21 -23 -21 -11 0 -23 -8 -26 -17 -4 -9 -15 -25 -25 -35 -10 -10 -18 -27 -18 -38 0 -11 -4 -20 -10 -20 -5 0 -10 -11 -10 -25 0 -14 -4 -25 -10 -25 -5 0 -12 -22 -16 -50 -7 -53 -14 -60 -34 -35 -14 17 -90 21 -90 5 0 -5 -7 -10 -15 -10 -8 0 -15 5 -15 10 0 16 -92 110 -107 110 -7 0 -13 9 -13 21 0 12 -8 23 -20 26 -11 3 -20 12 -20 20 0 14 -48 85 -62 91 -5 2 -8 7 -8 12 0 14 -62 110 -71 110 -5 0 -9 9 -9 19 0 22 -31 81 -42 81 -5 0 -8 9 -8 20 0 12 -6 33 -14 48 -44 87 -116 364 -116 447 0 29 -4 35 -21 35 -20 0 -21 -3 -14 -67 23 -230 119 -495 253 -703 90 -138 269 -340 302 -340 8 0 21 10 28 21 14 21 14 21 56 -20 55 -54 66 -53 66 9 0 114 76 254 178 330 74 55 141 84 255 111 51 11 98 23 105 25 6 2 12 15 12 29 0 14 7 28 15 31 8 4 15 12 15 20 0 16 -41 86 -105 179 -236 343 -155 734 169 816 54 13 64 39 14 38 -18 0 -51 -6 -73 -13z"></path>
			<path id="paExuPQNj" d="M1840 2356 c0 -9 30 -21 88 -35 83 -20 261 -100 310 -138 l23 -19 -138 -129 c-249 -235 -326 -317 -360 -380 -37 -70 -58 -165 -51 -232 14 -145 172 -325 389 -446 69 -38 226 -107 243 -107 6 0 71 -29 146 -64 228 -107 328 -148 341 -140 5 3 9 0 9 -5 0 -6 13 -11 29 -11 16 0 31 -5 33 -12 2 -6 13 -12 24 -13 10 -1 31 -7 47 -13 15 -7 39 -14 52 -16 21 -4 25 -1 25 18 0 18 -10 25 -53 39 -30 9 -63 17 -75 17 -12 0 -22 4 -22 9 0 4 -28 18 -62 31 -95 34 -243 98 -338 145 -47 23 -101 46 -120 50 -41 9 -32 5 -190 83 -69 34 -149 80 -178 102 -29 22 -59 40 -67 40 -8 0 -15 6 -15 13 0 7 -18 31 -40 52 -22 22 -53 57 -68 80 -15 22 -29 42 -32 45 -15 14 -40 101 -40 140 0 105 63 187 353 459 199 187 207 195 207 232 0 33 -5 42 -37 64 -21 14 -43 25 -50 25 -7 0 -13 4 -13 9 0 14 -157 81 -238 102 -90 23 -132 24 -132 5z"></path>
			<path id="pPXoXvhuV" d="M2950 2304 c0 -20 -51 -138 -62 -142 -4 -2 -8 -8 -8 -13 0 -5 -22 -30 -50 -56 -27 -26 -50 -55 -50 -65 0 -13 -7 -18 -25 -18 -14 0 -28 -7 -31 -15 -4 -8 -12 -15 -20 -15 -8 0 -14 -4 -14 -10 0 -5 -7 -10 -15 -10 -8 0 -15 -4 -15 -10 0 -5 -6 -10 -14 -10 -8 0 -21 -6 -28 -12 -7 -7 -30 -22 -51 -32 -20 -11 -37 -23 -37 -28 0 -4 -7 -8 -15 -8 -9 0 -18 -7 -21 -15 -4 -8 -12 -15 -18 -15 -20 0 -126 -100 -126 -120 0 -10 -7 -21 -16 -24 -11 -4 -14 -18 -12 -53 3 -46 4 -47 48 -61 56 -18 289 -20 379 -3 72 14 81 9 81 -43 l0 -29 78 8 c42 4 92 7 110 6 29 -1 32 2 32 28 0 46 -18 53 -109 45 l-81 -7 0 26 c0 34 -27 60 -54 53 -121 -34 -368 -36 -430 -4 -17 9 -15 13 20 50 57 59 145 125 267 202 183 116 304 256 323 374 6 38 5 42 -15 42 -13 0 -21 -6 -21 -16z"></path>
			<path id="p14UGsh3Ai" d="M296 2058 c-15 -58 -3 -148 20 -148 11 0 14 19 14 85 0 66 -3 85 -14 85 -7 0 -16 -10 -20 -22z"></path>
			<path id="pD5PFGoWA" d="M1500 1171 c-53 -12 -123 -48 -169 -87 -55 -48 -148 -234 -157 -316 -6 -53 -5 -58 14 -58 15 0 21 9 26 39 3 21 26 79 51 129 74 148 186 227 320 226 177 -2 339 -171 337 -354 -1 -57 -6 -76 -47 -157 -58 -114 -107 -171 -180 -209 -30 -16 -55 -32 -55 -36 0 -5 -20 -8 -45 -8 -38 0 -45 -3 -45 -20 0 -11 6 -20 13 -20 6 0 23 -3 37 -5 22 -5 23 -4 5 5 -17 9 -15 10 12 7 19 -2 29 1 26 6 -4 6 3 8 15 5 12 -4 22 -2 22 3 0 4 7 6 15 3 8 -4 17 1 21 10 3 9 10 13 15 10 5 -3 9 0 9 6 0 6 4 9 8 6 27 -17 171 187 198 282 29 98 17 231 -29 332 -32 69 -121 152 -192 180 -64 25 -165 34 -225 21z"></path>
			<path id="p5gPNHutC" d="M1174 604 c12 -92 74 -191 152 -245 26 -18 53 -32 61 -32 7 0 13 -4 13 -8 0 -4 10 -5 22 -1 14 3 19 1 14 -6 -5 -8 3 -10 26 -6 27 5 30 3 18 -6 -13 -10 -12 -11 3 -6 10 3 25 6 33 6 8 0 14 8 14 19 0 14 -10 20 -44 25 -45 7 -143 60 -181 99 -38 38 -84 121 -91 165 -5 33 -11 42 -27 42 -18 0 -19 -5 -13 -46z"></path>
		</g>
	</g>
	<g id="luWVSJLniU3q9nBsBbdTq3" fill="rgb(170,200,230)" style="transform: none;">
		<g style="transform: none;">
			<path id="p1XrittIX" d="M1270 3115 c0 -35 0 -35 45 -35 45 0 45 0 45 35 0 35 0 35 -45 35 -45 0 -45 0 -45 -35z"></path>
			<path id="p4hm8gec7" d="M1740 3115 l0 -35 49 0 49 0 0 35 0 35 -49 0 -49 0 0 -35z"></path>
			<path id="piJ3nbmBR" d="M1165 3128 c-22 -5 -84 -23 -137 -40 -94 -29 -98 -31 -98 -59 0 -26 3 -29 35 -29 19 0 35 5 35 10 0 6 16 10 35 10 19 0 35 4 35 9 0 5 19 11 43 15 23 3 66 12 95 18 50 11 52 12 52 45 0 30 -3 33 -27 32 -16 -1 -46 -5 -68 -11z"></path>
			<path id="pQGoIin6X" d="M1860 3105 c0 -34 1 -35 40 -35 39 0 40 1 40 35 0 34 -1 35 -40 35 -39 0 -40 -1 -40 -35z"></path>
			<path id="pGNzgKirM" d="M1970 3085 c0 -33 2 -35 35 -35 33 0 35 2 35 35 0 33 -2 35 -35 35 -33 0 -35 -2 -35 -35z"></path>
			<path id="pl5YS9oWA" d="M2112 3055 c-1 -34 0 -35 33 -35 33 0 35 2 35 35 0 33 -2 35 -33 35 -32 0 -34 -2 -35 -35z"></path>
			<path id="p120JtmxPA" d="M2912 2515 c3 -26 11 -51 17 -55 15 -9 19 -144 7 -219 -8 -44 -7 -53 5 -49 8 2 22 27 32 54 22 62 16 157 -15 245 -29 80 -53 92 -46 24z"></path>
			<path id="pGZyN38Ve" d="M331 2348 c-25 -126 -25 -128 -4 -128 16 0 21 12 31 70 16 91 15 110 -2 110 -10 0 -18 -18 -25 -52z"></path>
			<path id="ppfqL5kRw" d="M2890 2166 c0 -8 -7 -16 -15 -20 -8 -3 -15 -15 -15 -26 0 -11 -7 -20 -15 -20 -10 0 -15 -10 -15 -30 0 -26 2 -29 18 -19 20 13 78 86 88 112 5 13 1 17 -20 17 -16 0 -26 -6 -26 -14z"></path>
			<path id="pDnknoJTb" d="M2740 2005 c0 -8 -9 -15 -20 -15 -11 0 -20 -4 -20 -10 0 -5 -7 -10 -15 -10 -8 0 -15 -4 -15 -10 0 -5 -7 -10 -15 -10 -8 0 -15 -7 -15 -15 0 -9 -9 -15 -25 -15 -16 0 -25 -6 -25 -15 0 -9 -9 -15 -25 -15 -20 0 -25 -5 -25 -25 0 -22 -4 -25 -35 -25 -24 0 -35 -5 -35 -15 0 -8 -9 -15 -20 -15 -16 0 -20 -7 -20 -31 l0 -31 48 36 c26 20 97 67 157 105 61 39 126 83 145 100 l35 30 -37 1 c-27 0 -38 -4 -38 -15z"></path>
			<path id="ppw2CvYhx" d="M300 1888 c0 -30 13 -58 26 -58 9 0 14 12 14 35 0 28 -4 35 -20 35 -11 0 -20 -6 -20 -12z"></path>
			<path id="pRAFDBpiX" d="M310 1803 c0 -34 12 -63 26 -63 10 0 14 13 14 40 0 33 -3 40 -20 40 -12 0 -20 -7 -20 -17z"></path>
			<path id="pfCE7G8yA" d="M2340 1709 c0 -6 -7 -17 -15 -25 -8 -9 -15 -31 -15 -50 0 -33 1 -34 38 -34 30 1 34 3 20 11 -24 14 -23 28 7 72 l26 37 -31 0 c-16 0 -30 -5 -30 -11z"></path>
			<path id="phZ1CK5P5" d="M330 1688 c0 -30 13 -58 26 -58 9 0 14 12 14 35 0 28 -4 35 -20 35 -11 0 -20 -6 -20 -12z"></path>
			<path id="pSxMbbQZT" d="M3017 1553 c-4 -3 -7 -17 -7 -30 0 -16 6 -23 20 -23 20 0 25 15 14 44 -7 17 -16 20 -27 9z"></path>
			<path id="pYHMG8Tys" d="M380 1506 c0 -22 67 -183 109 -261 70 -129 81 -141 81 -80 0 24 -5 35 -15 35 -9 0 -15 9 -15 24 0 14 -7 31 -15 40 -8 8 -15 22 -15 30 0 9 -4 16 -10 16 -5 0 -10 9 -10 19 0 11 -7 26 -15 35 -8 8 -15 24 -15 35 0 11 -7 26 -15 35 -8 8 -15 24 -15 34 0 11 -3 27 -6 36 -8 20 -44 21 -44 2z"></path>
			<path id="pFcd0Qsuu" d="M1716 1496 c-3 -13 -3 -46 0 -73 7 -52 50 -153 65 -153 15 0 10 68 -7 84 -10 11 -18 42 -21 91 -4 50 -10 75 -18 75 -7 0 -16 -11 -19 -24z"></path>
			<path id="pLp4K8S6M" d="M1453 1283 c-27 -5 -32 -43 -7 -43 34 0 94 24 94 37 0 13 -37 16 -87 6z"></path>
			<path id="pPAxEJzAU" d="M1810 1220 c31 -44 40 -45 40 -6 0 33 -2 36 -31 36 l-30 0 21 -30z"></path>
			<path id="p2uA0cZM9" d="M1220 1203 c-116 -58 -228 -204 -246 -320 -6 -41 -8 -43 -23 -28 -10 8 -34 15 -54 15 -36 0 -37 -1 -37 -35 0 -38 13 -46 29 -17 9 15 15 12 59 -31 l48 -48 12 76 c25 160 121 293 265 365 37 18 67 37 67 42 0 17 -69 7 -120 -19z"></path>
			<path id="pszKJFFRK" d="M1946 1089 c17 -29 344 -212 344 -193 0 4 6 2 13 -4 6 -5 28 -13 47 -17 19 -4 73 -27 120 -50 144 -72 454 -195 553 -220 l27 -7 0 61 c0 54 -2 61 -19 61 -15 0 -21 -8 -23 -34 l-3 -34 -144 53 c-79 30 -189 75 -245 101 -55 25 -116 52 -133 58 -18 6 -33 14 -33 18 0 5 -13 8 -30 8 -16 0 -30 4 -30 9 0 5 -13 12 -30 16 -16 4 -57 20 -90 36 -33 16 -67 29 -75 29 -8 0 -15 4 -15 8 0 11 -66 42 -90 42 -11 0 -20 7 -20 15 0 10 -10 15 -30 15 -23 0 -30 4 -30 20 0 16 -7 20 -36 20 -23 0 -33 -4 -28 -11z"></path>
			<path id="p8WEvGO37" d="M620 1038 c16 -24 46 -61 65 -83 l34 -40 1 38 c0 30 -3 37 -20 37 -15 0 -20 7 -20 25 0 16 -6 25 -15 25 -8 0 -15 9 -15 20 0 16 -7 20 -31 20 l-30 0 31 -42z"></path>
			<path id="pc7XX5Sut" d="M1220 880 c-19 -38 -50 -140 -50 -167 0 -7 9 -13 19 -13 16 0 21 10 26 55 4 30 11 55 15 55 12 0 30 49 30 80 0 41 -16 37 -40 -10z"></path>
			<path id="pot0h2fTc" d="M750 885 c0 -6 58 -64 83 -84 15 -12 17 -10 17 19 0 23 -5 33 -20 37 -11 3 -20 12 -20 19 0 9 -11 14 -30 14 -16 0 -30 -2 -30 -5z"></path>
			<path id="pyf8aFss" d="M1920 800 c0 -33 3 -40 20 -40 21 0 25 16 14 58 -11 39 -34 27 -34 -18z"></path>
			<path id="paQvhYTpg" d="M1506 794 c-49 -16 -85 -48 -118 -107 -13 -24 -18 -54 -18 -120 0 -93 14 -136 61 -186 12 -13 18 -22 13 -20 -5 2 -26 11 -46 19 -21 8 -38 18 -38 22 0 4 -5 8 -11 8 -35 0 -123 147 -135 226 -5 34 -10 44 -25 44 -51 0 10 -191 86 -267 12 -13 48 -38 79 -57 138 -83 316 -65 441 45 31 28 115 153 115 172 0 13 -50 7 -51 -5 -1 -7 -7 16 -15 52 -16 72 -42 117 -89 149 -64 43 -158 53 -249 25z"></path>
			<path id="pWUY2hDoS" d="M1906 669 c-16 -79 3 -107 30 -44 20 48 18 75 -5 75 -13 0 -20 -10 -25 -31z"></path>
		</g>
	</g>
	<g id="l9nIYiWymfDN3axW6zygtN" fill="rgb(155,184,221)" style="transform: none;">
		<g style="transform: none;">
			<path id="p199qgnTzo" d="M1375 3160 c-312 -28 -587 -140 -774 -314 -51 -47 -149 -182 -187 -258 -31 -62 -84 -222 -84 -254 0 -8 8 -14 18 -14 14 0 22 12 31 53 6 28 23 79 36 112 14 33 25 66 25 73 0 6 7 12 15 12 8 0 15 7 15 15 0 8 9 24 20 35 11 11 20 22 20 25 0 6 8 15 100 110 62 64 166 142 240 180 19 10 37 21 40 24 3 3 30 14 60 25 30 10 69 24 85 32 17 7 86 25 155 41 117 25 141 27 360 27 229 0 265 -3 475 -41 97 -17 362 -100 435 -136 109 -54 219 -134 308 -223 50 -51 92 -98 92 -104 0 -5 4 -10 9 -10 5 0 14 -15 21 -32 6 -18 15 -40 19 -48 26 -50 41 -135 35 -191 -4 -32 -10 -59 -15 -59 -4 0 -13 -16 -20 -35 -7 -19 -17 -35 -21 -35 -4 0 -8 -11 -8 -25 0 -18 -5 -25 -20 -25 -16 0 -20 -7 -20 -37 0 -35 0 -36 20 -18 63 57 130 204 125 275 -11 158 -84 309 -211 436 -226 227 -660 371 -1164 388 -80 2 -185 1 -235 -4z"></path>
			<path id="p91S5tIvo" d="M316 2258 c-11 -42 -7 -58 14 -58 17 0 20 7 20 40 0 45 -23 57 -34 18z"></path>
			<path id="p1EWqJEHNC" d="M306 2168 c-12 -45 -7 -68 14 -68 17 0 20 7 20 45 0 49 -23 64 -34 23z"></path>
			<path id="p1SxSB9Sv" d="M2270 2165 c13 -15 0 -31 -125 -148 -254 -237 -359 -348 -393 -417 -36 -72 -40 -100 -14 -100 11 0 25 19 42 58 13 31 32 63 42 70 10 7 18 20 18 28 0 8 9 14 20 14 15 0 20 7 20 25 0 19 5 25 22 25 23 0 148 116 148 137 0 7 7 13 15 13 8 0 15 5 15 10 0 6 6 10 14 10 7 0 43 32 80 70 36 39 68 70 71 70 3 0 24 17 46 37 34 32 40 42 37 73 -3 32 -6 35 -37 38 -32 3 -33 2 -21 -13z"></path>
			<path id="pkOqi8X80" d="M2754 2026 c-3 -8 -4 -24 -2 -36 3 -20 5 -20 43 14 l40 35 -38 1 c-24 0 -40 -5 -43 -14z"></path>
			<path id="p1Dsf7Dbb9" d="M2620 1915 c0 -30 3 -30 41 -8 38 23 37 33 -6 33 -31 0 -35 -3 -35 -25z"></path>
			<path id="pnB6dsaFX" d="M300 1903 c1 -37 34 -229 49 -291 31 -119 32 -122 48 -122 19 0 15 42 -16 155 -11 44 -26 122 -33 173 -9 78 -14 92 -30 92 -10 0 -18 -3 -18 -7z"></path>
			<path id="p19qWkKKvZ" d="M2510 1860 c0 -5 -7 -10 -15 -10 -8 0 -15 -7 -15 -15 0 -8 -9 -15 -20 -15 -16 0 -20 -7 -20 -30 0 -28 -3 -30 -35 -30 -31 0 -35 -3 -35 -25 0 -18 -5 -25 -20 -25 -11 0 -20 -6 -20 -14 0 -8 -5 -16 -10 -18 -6 -2 -13 -26 -16 -54 l-6 -51 48 -19 c41 -16 75 -19 219 -18 94 0 189 5 212 11 38 10 42 9 47 -11 3 -11 6 -32 6 -45 0 -23 2 -24 53 -17 28 3 69 9 90 12 l37 7 0 -417 c0 -357 2 -416 15 -416 8 0 17 13 20 33 7 38 2 853 -5 860 -3 3 -39 -1 -80 -8 -41 -8 -80 -14 -86 -14 -6 -1 -14 17 -17 40 -3 22 -8 43 -11 46 -3 3 -47 -2 -98 -12 -156 -29 -350 -20 -395 17 -25 21 43 103 155 185 39 30 72 56 72 58 0 3 -16 5 -35 5 -19 0 -35 -4 -35 -10z"></path>
			<path id="p105vwBjzI" d="M1460 1463 c0 -39 11 -73 22 -73 15 0 38 -27 38 -44 0 -9 -4 -16 -10 -16 -5 0 -10 -16 -10 -35 0 -32 3 -35 29 -35 28 0 37 18 18 36 -13 13 -7 24 13 24 13 0 19 6 17 18 -4 26 -17 43 -28 36 -5 -3 -8 -1 -7 5 3 12 -63 110 -74 111 -5 0 -8 -12 -8 -27z"></path>
			<path id="pxxlret1C" d="M400 1456 c0 -12 28 -80 67 -163 20 -43 33 -42 33 2 0 24 -5 35 -15 35 -10 0 -15 11 -15 35 0 24 -5 35 -15 35 -10 0 -15 11 -15 35 0 28 -4 35 -20 35 -11 0 -20 -6 -20 -14z"></path>
			<path id="p4bOFa7qd" d="M1733 1358 c19 -46 37 -48 37 -4 0 32 -3 36 -25 36 -24 0 -25 -1 -12 -32z"></path>
			<path id="plDFlYoVl" d="M1760 1303 c0 -14 36 -67 73 -108 l36 -40 1 38 c0 31 -4 40 -20 44 -11 3 -20 13 -20 22 -1 25 -25 51 -49 51 -11 0 -21 -3 -21 -7z"></path>
			<path id="psuHrEByB" d="M1398 1273 c-10 -2 -18 -9 -18 -14 0 -5 -13 -9 -29 -9 -52 0 -91 -20 -91 -46 l0 -24 53 21 c28 12 80 28 115 36 40 9 62 20 62 29 0 14 -51 18 -92 7z"></path>
			<path id="p9SIPCt9r" d="M500 1232 c0 -34 213 -323 273 -371 15 -12 17 -10 17 18 0 24 -4 31 -20 31 -14 0 -20 7 -20 23 0 28 -17 47 -42 47 -13 0 -18 8 -18 25 0 14 -4 25 -10 25 -5 0 -10 7 -10 15 0 9 -7 18 -15 21 -8 4 -15 13 -15 20 0 8 -7 17 -15 20 -8 4 -15 12 -15 20 0 8 -4 14 -10 14 -5 0 -10 6 -10 14 0 8 -6 21 -14 28 -7 8 -17 24 -20 36 -5 15 -15 22 -32 22 -13 0 -24 -4 -24 -8z"></path>
			<path id="pHmrkBKdb" d="M1140 1129 l0 -30 30 21 c44 31 45 40 6 40 -33 0 -36 -2 -36 -31z"></path>
			<path id="pIObdMErR" d="M1915 1114 c42 -37 133 -100 159 -110 12 -5 16 0 16 20 0 14 -5 26 -10 26 -6 0 -20 9 -32 20 -12 11 -28 20 -35 20 -7 0 -13 5 -13 10 0 6 -8 10 -19 10 -10 0 -21 9 -24 20 -4 16 -13 20 -44 20 l-38 -1 40 -35z"></path>
			<path id="puXAOPYhr" d="M1453 1116 c-66 -25 -138 -77 -172 -125 -34 -48 -90 -179 -102 -241 -15 -75 -1 -159 42 -246 34 -73 90 -126 168 -163 48 -22 69 -26 151 -26 88 0 101 3 162 33 60 29 158 118 158 142 0 4 16 32 35 60 23 34 33 59 30 71 -4 11 -2 19 3 19 6 0 15 24 22 52 34 161 -60 345 -211 413 -89 40 -201 44 -286 11z m280 -74 c79 -38 117 -75 153 -147 26 -55 42 -150 30 -182 -6 -15 -10 -13 -21 14 -19 45 -89 112 -144 136 -28 12 -76 22 -123 25 -110 6 -175 -16 -250 -87 -75 -72 -102 -140 -96 -248 2 -40 1 -73 -2 -73 -3 0 -18 31 -35 68 -23 52 -29 82 -30 137 0 62 5 82 45 170 49 111 61 123 171 184 65 36 87 41 164 38 54 -3 85 -10 138 -35z m-35 -286 c155 -80 152 -301 -5 -373 -81 -37 -182 -25 -233 29 -107 114 -65 307 76 352 54 17 119 14 162 -8z"></path>
			<path id="pkygcwJ8P" d="M1050 1040 c0 -22 -5 -30 -18 -30 -22 0 -42 -39 -42 -80 0 -41 23 -38 39 5 6 19 28 57 47 85 l34 50 -30 0 c-27 0 -30 -3 -30 -30z"></path>
			<path id="p108ATWuDp" d="M2130 982 c0 -7 17 -18 63 -40 4 -2 7 8 7 22 0 23 -4 26 -35 26 -19 0 -35 -4 -35 -8z"></path>
			<path id="pl934rPdR" d="M2220 941 c0 -12 5 -15 68 -40 l52 -21 0 25 c0 20 -5 25 -25 25 -14 0 -25 5 -25 10 0 6 -16 10 -35 10 -19 0 -35 -4 -35 -9z"></path>
			<path id="pYOeNGE5x" d="M2360 885 c0 -8 6 -15 13 -15 6 0 23 -6 37 -13 53 -28 60 -28 60 -2 0 18 -5 25 -20 25 -11 0 -20 5 -20 10 0 6 -16 10 -35 10 -24 0 -35 -5 -35 -15z"></path>
			<path id="povctzO5Z" d="M870 869 c0 -16 -27 -39 -46 -39 -15 0 -14 -4 6 -25 30 -32 38 -31 52 3 17 38 16 37 38 17 20 -18 20 -18 20 18 0 36 -1 37 -35 37 -19 0 -35 -5 -35 -11z"></path>
			<path id="p10PD28MWN" d="M960 811 c0 -17 5 -33 11 -36 14 -9 18 -4 25 33 6 28 4 32 -15 32 -17 0 -21 -6 -21 -29z"></path>
			<path id="p0GK5h8SX" d="M2510 819 c0 -9 86 -53 157 -80 20 -7 23 -5 23 16 0 22 -4 25 -35 25 -24 0 -35 5 -35 15 0 8 -9 15 -20 15 -11 0 -20 5 -20 10 0 6 -16 10 -35 10 -19 0 -35 -5 -35 -11z"></path>
			<path id="p1HjVoSD1O" d="M2772 708 c3 -7 19 -18 36 -25 31 -13 32 -12 32 12 0 22 -4 25 -36 25 -23 0 -34 -4 -32 -12z"></path>
			<path id="p1634Ctd5c" d="M2882 668 c3 -7 39 -25 81 -40 74 -26 77 -26 77 -8 0 11 -7 20 -15 20 -8 0 -15 4 -15 8 0 11 -69 32 -104 32 -18 0 -26 -5 -24 -12z"></path>
		</g>
	</g>
	<g id="l4q8anBgCsUkWSmorqDYyCk" fill="rgb(140,169,214)" style="transform: none;">
		<g style="transform: none;">
			<path id="pg1JUK8FE" d="M1315 3150 c-22 -3 59 -4 180 -2 121 3 222 6 224 8 8 7 -363 1 -404 -6z"></path>
			<path id="pprMDcNzm" d="M1731 3146 c2 -2 47 -6 99 -9 67 -4 82 -3 50 3 -45 9 -157 13 -149 6z"></path>
			<path id="phePkzHa8" d="M1477 3122 c-9 -2 -17 -10 -17 -18 0 -11 17 -14 75 -14 60 0 75 3 75 15 0 8 -7 16 -15 16 -40 3 -103 4 -118 1z"></path>
			<path id="p14m5FH7eY" d="M1025 3086 c-120 -39 -205 -81 -303 -149 -83 -57 -226 -203 -218 -223 3 -7 0 -16 -6 -20 -7 -5 -8 -2 -3 7 8 12 6 12 -9 0 -9 -8 -15 -20 -12 -28 3 -8 2 -12 -3 -9 -8 5 -36 -42 -33 -56 1 -5 -2 -8 -8 -8 -8 0 -40 -62 -55 -109 -5 -17 -2 -21 17 -21 18 1 29 13 48 53 27 56 60 110 73 115 4 2 7 8 7 13 0 21 66 108 83 108 9 1 17 7 17 14 0 19 43 57 63 57 9 0 17 6 17 14 0 20 65 66 94 66 16 0 26 6 26 14 0 21 45 46 85 46 27 0 35 4 35 18 0 24 61 45 122 43 37 -1 48 2 48 14 0 9 10 20 23 25 19 7 19 9 3 9 -29 1 -217 -64 -288 -100 -78 -39 -195 -118 -227 -153 -14 -14 -29 -26 -35 -26 -16 0 55 68 119 114 118 84 287 161 440 199 l20 5 -20 1 c-11 0 -65 -15 -120 -33z m-480 -334 l-38 -37 33 43 c18 24 35 40 38 37 3 -3 -11 -22 -33 -43z"></path>
			<path id="phhOyIr3I" d="M1368 3113 c12 -2 30 -2 40 0 9 3 -1 5 -23 4 -22 0 -30 -2 -17 -4z"></path>
			<path id="pmmQlsvhJ" d="M2035 3105 c301 -61 536 -166 710 -318 39 -34 55 -44 35 -23 -90 96 -268 206 -430 264 -104 38 -315 92 -349 91 -14 -1 1 -7 34 -14z"></path>
			<path id="pR8wv7sF7" d="M2065 3064 c6 -2 64 -19 130 -38 149 -43 215 -71 215 -91 0 -11 10 -15 35 -15 40 0 85 -25 85 -46 0 -8 10 -14 25 -14 16 0 25 -6 25 -15 0 -9 10 -15 26 -15 17 0 28 -6 31 -20 3 -11 10 -20 16 -20 17 0 86 -34 87 -43 0 -4 8 -17 18 -28 11 -10 25 -32 33 -47 8 -15 22 -33 32 -40 9 -7 17 -17 17 -23 0 -5 12 -27 26 -49 26 -40 64 -54 64 -25 0 20 -22 65 -32 65 -4 0 -8 5 -8 11 0 6 -12 20 -26 31 -14 11 -23 26 -20 33 2 7 -4 21 -15 31 -10 9 -19 14 -19 10 0 -5 -26 16 -57 45 -138 126 -328 219 -581 285 -82 21 -138 31 -107 18z"></path>
			<path id="porut8YH2" d="M2920 2475 c0 -19 5 -35 10 -35 6 0 10 -16 10 -35 0 -28 4 -35 20 -35 24 0 24 4 3 80 -18 68 -43 82 -43 25z"></path>
			<path id="pbh9gpKqf" d="M356 2438 c-10 -38 -7 -48 14 -48 16 0 20 7 20 35 0 40 -24 49 -34 13z"></path>
			<path id="p19jJSMXl1" d="M326 2318 c-10 -38 -7 -48 14 -48 16 0 20 7 20 35 0 40 -24 49 -34 13z"></path>
			<path id="pX2Zqj3Ia" d="M2930 2235 c0 -39 14 -46 30 -16 16 31 12 51 -10 51 -16 0 -20 -7 -20 -35z"></path>
			<path id="ptnMZUEVr" d="M316 2238 c-10 -38 -7 -48 14 -48 16 0 20 7 20 35 0 40 -24 49 -34 13z"></path>
			<path id="p16SiA9fAL" d="M2890 2160 c0 -23 -4 -30 -20 -30 -16 0 -20 -7 -20 -37 0 -36 0 -36 18 -17 24 25 72 97 72 106 0 5 -11 8 -25 8 -21 0 -25 -5 -25 -30z"></path>
			<path id="pczmsACdB" d="M2283 2152 c16 -17 15 -20 -13 -47 -16 -16 -33 -25 -37 -22 -9 9 -44 -23 -37 -35 3 -4 1 -7 -4 -6 -9 3 -84 -61 -97 -83 -4 -8 14 6 41 31 49 45 49 44 -6 -13 -50 -53 -79 -77 -50 -42 7 8 8 15 3 15 -13 0 -42 -37 -35 -45 4 -4 2 -5 -4 -3 -14 4 -127 -99 -120 -111 3 -4 -3 -16 -14 -26 -11 -10 -20 -15 -20 -10 0 4 8 14 18 21 9 7 12 14 6 14 -18 0 -75 -70 -68 -82 4 -6 3 -8 -3 -5 -10 6 -83 -77 -83 -95 0 -21 52 -6 77 23 16 18 40 44 56 60 15 15 27 32 27 37 0 5 11 15 25 22 14 7 25 22 25 32 0 10 7 18 15 18 9 0 15 9 15 25 0 21 5 25 30 25 32 0 39 6 122 98 26 28 51 52 57 52 12 0 61 44 61 55 0 4 11 16 25 27 18 14 25 29 25 54 0 30 -3 34 -27 34 -25 0 -25 -1 -10 -18z m-263 -275 c0 -2 -19 -21 -42 -42 l-43 -40 40 43 c36 39 45 47 45 39z"></path>
			<path id="p13YVIC9xA" d="M2710 1980 c0 -16 -7 -20 -30 -20 -25 0 -30 -4 -30 -25 0 -14 3 -25 7 -25 10 0 100 60 113 76 11 12 7 14 -24 14 -29 0 -36 -4 -36 -20z"></path>
			<path id="p19ZlbQTGT" d="M300 1913 c0 -34 12 -63 26 -63 10 0 14 13 14 40 0 33 -3 40 -20 40 -12 0 -20 -7 -20 -17z"></path>
			<path id="p18B1zWrfy" d="M2570 1885 c0 -30 3 -30 41 -8 38 23 37 33 -6 33 -31 0 -35 -3 -35 -25z"></path>
			<path id="pFg9Cg2hc" d="M2390 1765 c0 -8 -7 -15 -15 -15 -9 0 -15 -9 -15 -25 0 -18 -5 -25 -20 -25 -15 0 -20 -7 -20 -25 0 -14 -4 -25 -10 -25 -5 0 -10 -15 -10 -33 0 -28 5 -36 35 -50 20 -9 45 -17 55 -17 11 0 20 -3 20 -7 0 -5 65 -8 145 -8 80 -1 145 3 145 7 0 4 27 8 60 8 47 0 60 3 60 15 0 8 7 15 15 15 8 0 15 5 15 11 0 6 -8 8 -17 5 -10 -3 -36 -7 -58 -10 l-40 -6 30 15 c27 14 28 15 5 11 -186 -36 -409 -25 -427 21 -6 15 31 67 85 117 l37 36 -37 0 c-27 0 -38 -4 -38 -15z m-20 -170 c14 -8 21 -14 15 -14 -5 0 -21 6 -35 14 -14 8 -20 14 -15 14 6 0 21 -6 35 -14z m315 -26 c-62 -9 -220 -9 -259 0 -16 3 47 6 140 6 103 1 150 -2 119 -6z"></path>
			<path id="pWFDac0wN" d="M320 1760 c0 -37 24 -110 36 -110 15 0 17 23 8 83 -5 27 -11 37 -25 37 -11 0 -19 -4 -19 -10z"></path>
			<path id="puyEUXRsr" d="M1370 1600 c0 -38 2 -40 31 -40 l30 0 -22 40 c-13 22 -26 40 -31 40 -4 0 -8 -18 -8 -40z"></path>
			<path id="p12SKqz834" d="M351 1613 c0 -10 10 -47 22 -82 25 -74 47 -91 47 -37 0 20 -4 36 -10 36 -5 0 -10 12 -10 28 0 47 -11 72 -31 72 -12 0 -19 -7 -18 -17z"></path>
			<path id="ptXV9YlvI" d="M1734 1555 c-19 -46 -18 -65 5 -65 20 0 31 25 31 73 0 38 -18 34 -36 -8z"></path>
			<path id="pokHGsped" d="M2830 1531 c0 -66 7 -69 135 -50 63 10 75 14 75 30 0 22 0 22 -102 5 -43 -7 -78 -9 -78 -5 0 4 21 11 48 14 69 10 76 16 10 10 -47 -4 -58 -2 -58 10 0 8 -7 15 -15 15 -10 0 -15 -10 -15 -29z"></path>
			<path id="pIpHvdlvG" d="M3005 1550 l-30 -8 33 -1 c17 0 32 4 32 9 0 6 -1 9 -2 9 -2 -1 -16 -5 -33 -9z"></path>
			<path id="puLQYy8tq" d="M1420 1511 c0 -22 7 -46 15 -55 8 -8 15 -18 15 -23 0 -20 68 -83 90 -83 20 0 21 2 9 17 -12 14 -12 16 0 8 7 -4 3 6 -9 23 -13 17 -27 29 -32 26 -5 -3 -7 -2 -6 3 4 11 -64 123 -74 123 -4 0 -8 -18 -8 -39z"></path>
			<path id="ptgQZyCEs" d="M413 1418 c19 -46 37 -48 37 -4 0 32 -3 36 -25 36 -24 0 -25 -1 -12 -32z"></path>
			<path id="pSWfdkdkf" d="M1720 1404 c0 -23 59 -144 71 -144 5 0 9 13 9 30 0 32 -19 80 -32 80 -4 0 -8 11 -8 25 0 18 -5 25 -20 25 -12 0 -20 -7 -20 -16z"></path>
			<path id="pSvP6IdwB" d="M460 1314 c0 -14 63 -124 71 -124 5 0 9 16 9 35 0 24 -5 35 -15 35 -10 0 -15 10 -15 30 0 25 -4 30 -25 30 -14 0 -25 -3 -25 -6z"></path>
			<path id="p19mBWGE42" d="M1510 1281 c0 -15 6 -21 23 -21 14 0 24 6 24 15 0 8 -4 15 -8 15 -4 0 -14 3 -23 6 -12 4 -16 0 -16 -15z"></path>
			<path id="p11HL7okIZ" d="M1180 1160 l0 -30 35 22 c44 29 44 38 0 38 -32 0 -35 -2 -35 -30z"></path>
			<path id="pciE8lfoz" d="M1895 1134 c22 -20 52 -45 68 -56 l27 -19 0 30 c0 26 -4 31 -24 31 -18 0 -25 6 -28 23 -2 18 -10 22 -43 25 l-40 2 40 -36z"></path>
			<path id="p99619mPc" d="M550 1152 c0 -5 15 -29 33 -53 l32 -44 3 35 c2 19 -1 36 -7 38 -6 2 -11 10 -11 18 0 8 -10 14 -25 14 -14 0 -25 -4 -25 -8z"></path>
			<path id="p4PQ0f7LZ" d="M1510 1130 c-18 -6 -6 -8 40 -4 59 5 101 -2 185 -30 11 -3 1 3 -23 15 -48 23 -162 34 -202 19z"></path>
			<path id="piFeHhSpJ" d="M1441 1111 c-10 -6 -10 -10 -1 -13 7 -2 0 -9 -16 -16 -25 -12 -26 -12 -13 4 13 16 12 16 -9 5 -12 -7 -21 -15 -18 -19 2 -4 -8 -16 -23 -26 l-26 -20 19 25 c11 13 -6 -1 -37 -33 -31 -31 -57 -61 -57 -67 0 -6 14 -11 30 -11 23 0 30 4 30 20 0 11 7 20 15 20 8 0 23 9 32 20 10 11 21 20 26 20 4 0 17 9 29 20 12 11 32 20 44 20 12 0 24 5 26 11 4 13 148 19 148 7 0 -4 18 -11 40 -14 22 -4 40 -10 40 -15 0 -4 9 -11 21 -14 12 -4 29 -14 38 -23 10 -10 31 -29 47 -44 39 -36 50 -51 58 -76 5 -15 15 -22 32 -22 24 0 24 0 9 36 -19 46 -51 91 -94 132 -36 34 -46 40 -36 20 4 -7 -1 -4 -10 7 -9 11 -21 19 -27 17 -6 -2 -29 4 -51 13 -44 17 -159 23 -217 11 -26 -5 -31 -4 -20 3 13 10 13 11 0 11 -8 0 -21 -4 -29 -9z"></path>
			<path id="pawTqBAZu" d="M1040 1025 c0 -44 9 -44 38 0 l22 35 -30 0 c-28 0 -30 -3 -30 -35z"></path>
			<path id="pxLpuhd75" d="M2040 1032 c0 -8 52 -42 64 -42 3 0 6 11 6 25 0 22 -4 25 -35 25 -19 0 -35 -4 -35 -8z"></path>
			<path id="p11hEj1SZ1" d="M658 993 c12 -15 42 -50 67 -78 l45 -50 -2 40 c-3 35 -6 40 -30 43 -22 3 -27 9 -30 35 -3 28 -7 32 -37 35 l-33 3 20 -28z"></path>
			<path id="pfK0qAAgh" d="M1458 935 c-50 -18 -118 -66 -156 -109 -31 -35 -72 -117 -72 -142 0 -8 -11 -14 -26 -14 -26 0 -27 -1 -20 -46 10 -76 53 -158 112 -214 50 -48 101 -77 112 -65 3 3 -6 18 -20 33 -38 40 -67 104 -74 164 -19 165 152 334 317 315 147 -18 269 -147 255 -270 -6 -57 6 -54 34 8 15 33 19 55 14 86 -4 25 -3 44 4 48 24 15 18 71 -8 71 -11 0 -20 5 -20 11 0 24 -91 98 -145 118 -67 25 -246 29 -307 6z"></path>
			<path id="p10EgjdRwU" d="M1229 883 c-55 -125 -63 -173 -29 -173 17 0 20 7 20 40 0 22 5 40 10 40 6 0 10 16 10 35 0 24 5 35 15 35 10 0 15 11 15 35 0 49 -17 44 -41 -12z"></path>
			<path id="pb29tmhDj" d="M2302 908 c3 -7 19 -18 36 -25 31 -13 32 -12 32 12 0 22 -4 25 -36 25 -23 0 -34 -4 -32 -12z"></path>
			<path id="payBRMJQ8" d="M805 830 c3 -5 19 -19 35 -30 l30 -21 0 30 c0 29 -3 31 -36 31 -20 0 -33 -4 -29 -10z"></path>
		</g>
	</g>
	<g id="l7FZWhjCHYJ7EamtJjoWaV8" fill="rgb(116,170,220)" style="transform: none;">
		<g style="transform: none;">
			<path id="pSzG2y0Bv" d="M433 1755 c15 -169 100 -417 212 -616 51 -91 179 -272 215 -304 20 -18 22 -18 31 -3 8 15 15 11 51 -28 l42 -45 21 93 c11 51 33 114 48 139 30 51 32 59 16 59 -42 0 -301 264 -369 376 -13 21 -27 41 -30 44 -22 17 -150 268 -150 294 0 9 -4 16 -10 16 -5 0 -10 11 -10 25 0 22 -4 25 -36 25 l-37 0 6 -75z"></path>
			<path id="pn0yXdoqb" d="M3007 1519 c-18 -11 -67 -102 -67 -126 0 -7 -4 -13 -8 -13 -5 0 -15 -12 -22 -27 -23 -45 -156 -225 -181 -243 -12 -9 -101 -85 -120 -102 -11 -10 -23 -18 -27 -18 -5 0 -17 -8 -28 -18 -10 -10 -39 -29 -64 -42 -25 -14 -46 -28 -48 -32 -2 -5 -15 -8 -28 -8 -45 0 -24 -20 64 -63 157 -77 512 -217 551 -217 8 0 11 133 11 460 0 253 -3 460 -7 460 -5 0 -16 -5 -26 -11z"></path>
		</g>
	</g>
	<g id="l773ky4mwwTS9tndPyVrX8Q" fill="rgb(131,159,208)" style="transform: none;">
		<g style="transform: none;">
			<path id="pWqeMmyeJ" d="M1338 3113 c-33 -8 -20 -33 17 -33 28 0 35 4 35 20 0 20 -14 23 -52 13z"></path>
			<path id="p2HfA8OQE" d="M1700 3100 c0 -16 7 -20 35 -20 40 0 49 24 13 34 -38 10 -48 7 -48 -14z"></path>
			<path id="pIFIADbcp" d="M1248 3103 c-33 -8 -20 -33 17 -33 28 0 35 4 35 20 0 20 -14 23 -52 13z"></path>
			<path id="p15dHNNA9C" d="M1820 3092 c0 -15 15 -20 87 -31 48 -7 125 -21 171 -32 99 -23 132 -24 132 -5 0 16 -114 45 -280 71 -117 18 -110 19 -110 -3z"></path>
			<path id="p33xfnasO" d="M1030 3051 c-47 -15 -116 -42 -154 -59 -76 -35 -220 -128 -250 -161 -19 -21 -19 -21 18 -21 29 0 39 4 43 20 3 11 14 20 24 20 12 0 19 7 19 20 0 16 7 20 30 20 20 0 30 5 30 15 0 9 9 15 25 15 18 0 25 5 25 20 0 17 7 20 40 20 27 0 40 4 40 14 0 9 16 15 47 19 26 3 49 10 51 16 2 6 17 11 33 11 16 0 29 5 29 10 0 6 16 10 35 10 28 0 35 4 35 20 0 26 -16 25 -120 -9z"></path>
			<path id="pB5LqL08o" d="M2330 2974 c0 -23 3 -25 38 -24 57 3 62 1 62 -18 0 -11 16 -26 45 -40 47 -23 105 -29 105 -13 0 11 -114 68 -197 101 l-53 20 0 -26z"></path>
			<path id="p19sjLDrNX" d="M2610 2835 c0 -18 5 -25 20 -25 11 0 20 -7 20 -15 0 -8 8 -15 19 -15 10 0 21 -9 24 -20 3 -14 14 -20 31 -20 14 0 26 -4 26 -10 0 -5 6 -10 14 -10 9 0 16 -12 18 -32 2 -25 8 -34 26 -36 16 -3 22 -10 22 -28 0 -13 5 -24 10 -24 6 0 10 -7 10 -15 0 -8 4 -15 8 -15 4 0 14 -15 21 -32 68 -168 75 -221 41 -297 -11 -24 -20 -52 -20 -62 0 -10 -7 -19 -15 -19 -9 0 -15 -9 -15 -25 0 -16 -6 -25 -16 -25 -17 0 -44 -23 -44 -38 0 -5 -9 -12 -20 -15 -12 -3 -20 -14 -20 -26 0 -16 -6 -21 -25 -21 -16 0 -25 -6 -25 -15 0 -8 -9 -15 -20 -15 -15 0 -20 -7 -20 -25 0 -14 4 -25 9 -25 19 0 151 112 190 161 92 116 119 223 86 347 -10 37 -26 81 -36 99 -10 17 -15 34 -12 37 4 3 2 6 -4 6 -6 0 -22 17 -35 38 -42 62 -118 142 -186 193 -36 27 -69 49 -73 49 -5 0 -9 -11 -9 -25z"></path>
			<path id="pnRgrewIq" d="M544 2747 c-22 -23 -57 -69 -79 -102 -22 -33 -44 -63 -50 -67 -5 -4 -7 -8 -3 -8 3 0 -4 -20 -17 -44 -52 -99 -95 -333 -95 -521 0 -103 6 -135 26 -135 11 0 14 26 14 133 0 229 32 378 116 536 24 46 44 89 44 97 0 8 7 14 15 14 8 0 15 6 15 14 0 8 7 16 15 20 9 3 15 18 15 36 0 20 5 30 15 30 8 0 15 9 15 20 0 11 -2 20 -4 20 -2 0 -21 -19 -42 -43z"></path>
			<path id="p1Dwq1LYoJ" d="M2283 2153 c15 -16 15 -18 0 -35 -15 -17 -14 -18 20 -18 36 0 37 1 37 35 0 34 -1 35 -37 35 -35 0 -36 -1 -20 -17z"></path>
			<path id="pYivyJCCX" d="M2206 2045 c-17 -13 -34 -21 -38 -19 -5 3 -7 0 -6 -8 2 -7 -4 -12 -12 -10 -8 2 -12 0 -7 -4 4 -4 0 -16 -10 -26 -15 -17 -14 -18 19 -18 41 0 75 31 84 78 8 38 7 38 -30 7z"></path>
			<path id="phDXduCXp" d="M410 1939 c0 -89 22 -229 36 -229 10 0 12 -13 7 -50 -5 -47 -4 -50 17 -50 20 0 22 3 15 33 -15 73 -18 107 -6 107 6 0 11 -7 11 -16 0 -26 128 -277 150 -294 3 -3 17 -23 30 -44 68 -112 306 -355 371 -378 10 -4 43 20 98 73 l83 79 -36 0 c-25 0 -36 -4 -36 -15 0 -8 -8 -15 -17 -15 -9 0 -29 -12 -45 -26 -27 -27 -27 -27 -55 -9 -15 10 -75 66 -133 124 -198 199 -343 446 -406 690 -18 70 -19 71 -51 71 l-33 0 0 -51z"></path>
			<path id="p2YWpOXMo" d="M2600 1915 c0 -9 -9 -15 -25 -15 -14 0 -25 -4 -25 -10 0 -5 -7 -10 -15 -10 -9 0 -15 -9 -15 -25 0 -22 -4 -25 -35 -25 -28 0 -35 -4 -35 -20 0 -14 -7 -20 -21 -20 -21 0 -49 -21 -49 -38 0 -5 -9 -12 -20 -15 -15 -4 -20 -14 -20 -41 0 -29 -4 -36 -20 -36 -21 0 -26 -30 -14 -77 10 -38 164 -74 164 -39 0 8 -14 18 -32 21 -50 11 -108 36 -108 47 0 5 4 6 10 3 6 -3 7 1 4 10 -14 36 85 135 226 226 55 35 99 67 100 72 0 4 -16 7 -35 7 -24 0 -35 -5 -35 -15z"></path>
			<path id="p10DyP6Age" d="M2046 1895 c-10 -8 -22 -12 -26 -10 -4 2 -18 -8 -31 -23 l-24 -27 30 25 30 25 -29 -32 c-16 -18 -32 -31 -35 -30 -3 1 -6 -1 -6 -4 0 -3 -6 -13 -14 -22 -12 -15 -11 -17 6 -17 53 0 127 62 121 103 -3 23 -5 24 -22 12z"></path>
			<path id="pZ8vgUAqy" d="M310 1848 c0 -17 17 -121 31 -185 7 -34 16 -53 25 -53 18 0 18 35 -1 120 -8 36 -14 80 -15 98 0 25 -4 32 -20 32 -11 0 -20 -6 -20 -12z"></path>
			<path id="pIQa6Z3e5" d="M1869 1725 c-18 -18 -36 -32 -41 -29 -5 3 -7 1 -6 -3 2 -5 -11 -24 -29 -41 -31 -32 -73 -124 -73 -162 0 -13 7 -20 20 -20 12 0 20 7 20 17 0 21 58 125 76 136 7 4 16 23 20 42 5 28 11 35 30 35 20 0 24 5 24 30 0 17 -2 30 -4 30 -2 0 -19 -16 -37 -35z"></path>
			<path id="pyH8naFV5" d="M1380 1589 c0 -32 39 -129 52 -129 5 0 8 -7 8 -15 0 -8 5 -15 10 -15 6 0 10 -7 10 -15 0 -8 9 -15 20 -15 14 0 20 -7 20 -24 0 -25 16 -36 52 -36 20 0 20 1 5 18 -10 10 -17 21 -17 24 0 3 -13 20 -30 38 -16 18 -30 38 -30 46 0 8 -5 14 -11 14 -5 0 -7 5 -4 10 3 6 3 10 -2 10 -4 0 -16 20 -26 45 -11 25 -23 45 -28 45 -5 0 -9 7 -9 15 0 8 -4 15 -10 15 -5 0 -10 -14 -10 -31z"></path>
			<path id="p12JmRA3GO" d="M2805 1590 c-16 -5 -73 -16 -125 -24 -52 -8 -83 -14 -67 -15 15 -1 27 -6 27 -12 0 -12 45 -9 143 7 35 6 37 5 37 -20 0 -19 5 -26 20 -26 12 0 20 -7 20 -16 0 -14 8 -16 45 -12 l45 6 -32 -57 c-119 -211 -255 -353 -453 -474 -41 -25 -72 -37 -98 -37 -71 0 -34 -35 49 -47 25 -3 49 -2 52 3 4 5 27 20 52 34 25 13 54 32 64 42 11 10 23 18 28 18 4 0 16 8 27 18 17 15 104 90 120 102 4 3 29 32 56 65 28 33 55 63 60 67 6 4 6 8 2 8 -5 0 3 14 17 30 14 17 33 46 42 65 9 19 20 35 25 35 5 0 9 6 9 13 0 19 49 117 58 117 4 0 9 11 10 25 1 21 -2 25 -21 20 -35 -8 -151 -25 -153 -22 -1 1 -4 22 -7 47 -3 25 -6 46 -6 48 -1 3 -12 1 -46 -8z"></path>
			<path id="pg8notkot" d="M370 1555 c0 -29 72 -209 117 -295 48 -89 154 -250 179 -270 12 -11 14 -7 14 24 0 25 -4 36 -15 36 -8 0 -15 9 -15 20 0 13 -7 20 -20 20 -16 0 -20 7 -20 30 0 17 -4 30 -10 30 -5 0 -10 7 -10 15 0 8 -4 15 -9 15 -5 0 -12 11 -15 25 -4 14 -13 25 -21 25 -9 0 -15 10 -15 24 0 14 -6 31 -13 38 -8 7 -17 25 -20 40 -4 15 -14 33 -22 42 -8 8 -15 24 -15 35 0 12 -4 21 -9 21 -5 0 -11 18 -15 40 -3 22 -11 40 -16 40 -6 0 -10 14 -10 30 0 23 -4 30 -20 30 -11 0 -20 -7 -20 -15z"></path>
			<path id="p6kTl3QpI" d="M2500 1550 c0 -5 16 -10 35 -10 19 0 35 5 35 10 0 6 -16 10 -35 10 -19 0 -35 -4 -35 -10z"></path>
			<path id="pZkyyN5wt" d="M500 1475 c0 -30 3 -35 24 -35 23 0 24 2 13 35 -6 19 -16 35 -24 35 -8 0 -13 -13 -13 -35z"></path>
			<path id="pgFD0PqFk" d="M530 1401 c0 -39 9 -61 26 -61 9 0 14 -12 14 -35 0 -31 3 -35 25 -35 28 0 28 -2 -18 103 -28 62 -47 74 -47 28z"></path>
			<path id="pNSQGjFPs" d="M1720 1415 c0 -25 28 -85 39 -85 12 0 14 42 5 78 -7 25 -44 31 -44 7z"></path>
			<path id="piqWybquo" d="M1523 1308 c1 -8 -11 -14 -30 -16 -26 -3 -33 -8 -33 -24 0 -18 4 -20 31 -14 17 3 39 6 49 6 9 0 17 7 17 14 0 8 -5 14 -11 13 -6 -1 -10 6 -8 16 2 9 -2 17 -8 17 -5 0 -9 -6 -7 -12z"></path>
			<path id="pNSs1h4SC" d="M1770 1291 c0 -16 91 -130 121 -152 l29 -20 0 29 c0 31 -35 72 -63 72 -11 0 -17 8 -17 25 0 14 -4 25 -10 25 -5 0 -10 7 -10 15 0 9 -9 15 -25 15 -14 0 -25 -4 -25 -9z"></path>
			<path id="pTp2e9Llr" d="M1338 1258 c-21 -6 -38 -16 -38 -24 0 -9 -12 -14 -35 -14 -31 0 -35 -3 -35 -25 0 -14 2 -25 4 -25 2 0 28 11 57 24 30 14 75 30 102 37 55 13 65 40 15 38 -18 -1 -50 -6 -70 -11z"></path>
			<path id="pSpJinPrj" d="M620 1205 c0 -31 3 -35 25 -35 30 0 30 3 8 41 -23 38 -33 37 -33 -6z"></path>
			<path id="pZYyim6fX" d="M1446 1090 c-27 -11 -53 -17 -58 -14 -5 3 -7 0 -6 -8 2 -7 -5 -12 -14 -12 -10 1 -15 -2 -12 -7 3 -5 -11 -18 -30 -30 -20 -12 -36 -27 -36 -34 0 -7 -6 -15 -13 -18 -7 -3 -31 -47 -53 -98 -37 -88 -39 -100 -38 -189 1 -78 6 -105 27 -151 13 -31 29 -59 33 -62 5 -3 9 41 9 96 1 92 4 108 29 160 32 65 103 134 174 169 63 31 189 37 261 13 28 -9 51 -21 51 -26 0 -6 5 -7 10 -4 6 3 10 1 10 -6 0 -7 3 -10 6 -6 12 12 82 -70 93 -109 13 -47 14 -125 2 -176 -5 -21 -7 -38 -4 -38 2 0 15 24 28 53 29 63 42 132 26 141 -14 9 -14 56 0 56 24 0 -14 131 -48 167 -6 7 -13 16 -15 21 -8 21 -114 93 -163 111 -69 26 -85 26 -85 1 0 -16 7 -20 30 -20 17 0 30 -4 30 -10 0 -5 14 -10 30 -10 20 0 30 -5 30 -15 0 -8 9 -15 20 -15 11 0 20 -6 20 -13 0 -10 -18 -4 -60 16 -47 23 -80 32 -148 37 -48 4 -79 8 -69 9 9 0 17 7 17 15 0 10 13 16 38 19 28 3 24 4 -18 5 -33 1 -74 -7 -104 -18z"></path>
			<path id="pa0LztW4s" d="M730 1027 c0 -33 3 -37 25 -37 21 0 25 -5 25 -29 0 -26 -4 -30 -32 -33 l-33 -3 74 -74 c66 -66 75 -72 84 -55 7 13 7 19 -1 22 -7 2 -12 9 -12 15 0 6 -17 28 -37 49 l-37 38 28 0 28 0 -38 53 c-20 28 -46 61 -56 72 -18 19 -18 19 -18 -18z"></path>
			<path id="pB60Ho9Xd" d="M2010 1052 c0 -7 102 -72 114 -72 3 0 6 11 6 25 0 20 -5 25 -25 25 -16 0 -25 6 -25 15 0 10 -11 15 -35 15 -19 0 -35 -3 -35 -8z"></path>
			<path id="puky8HCif" d="M2202 948 c3 -7 19 -18 36 -25 31 -13 32 -12 32 12 0 22 -4 25 -36 25 -23 0 -34 -4 -32 -12z"></path>
		</g>
	</g>
	<g id="l1ho8UvWv9YtNnWC3O1Lxss" fill="rgb(247,177,23)" style="transform: none;">
		<g style="transform: none;">
			<path id="p15i8ZVZrO" d="M1605 2691 c-169 -38 -265 -83 -336 -158 -53 -56 -69 -84 -69 -120 0 -31 2 -33 35 -33 19 0 63 13 98 30 246 116 530 118 762 4 71 -34 199 -121 240 -163 28 -29 81 -28 96 1 7 12 12 61 13 108 0 96 -17 143 -78 203 -52 52 -174 107 -291 132 -101 21 -366 19 -470 -4z"></path>
			<path id="pScYhWrXc" d="M2160 2242 c0 -8 52 -42 64 -42 3 0 6 11 6 25 0 22 -4 25 -35 25 -19 0 -35 -4 -35 -8z"></path>
		</g>
	</g>
	<g id="l1v7ek6TdOudIagneDWVNLs" fill="rgb(238,153,29)" style="transform: none;">
		<g style="transform: none;">
			<path id="pSmbRTu8s" d="M1770 2700 c0 -18 7 -20 75 -20 68 0 75 2 75 20 0 18 -7 20 -75 20 -68 0 -75 -2 -75 -20z"></path>
			<path id="pJBBYJshG" d="M1623 2698 c-29 -5 -53 -14 -53 -19 0 -5 -16 -9 -35 -9 -19 0 -35 -4 -35 -10 0 -5 -13 -10 -29 -10 -39 0 -61 -9 -61 -26 0 -9 -11 -14 -30 -14 -16 0 -30 -4 -30 -10 0 -5 -7 -10 -15 -10 -10 0 -15 -10 -15 -30 l0 -30 53 34 c59 39 166 78 279 100 42 9 80 16 83 16 3 0 5 7 5 15 0 17 -35 18 -117 3z"></path>
			<path id="pawf3hovW" d="M1960 2696 c0 -14 11 -18 93 -32 32 -5 37 -4 37 14 0 15 -9 21 -46 26 -69 9 -84 8 -84 -8z"></path>
			<path id="p4Bx1K8Wh" d="M2120 2659 c0 -5 17 -17 38 -25 181 -72 256 -153 254 -276 0 -31 -6 -67 -12 -79 l-12 -21 -22 21 c-32 33 -144 114 -201 145 -114 64 -276 106 -425 110 -137 4 -326 -38 -450 -100 -28 -14 -53 -24 -55 -22 -3 2 7 21 21 41 l25 37 -31 0 c-20 0 -30 -5 -30 -15 0 -8 -4 -15 -9 -15 -17 0 -61 -103 -61 -142 0 -36 2 -38 33 -38 18 0 48 9 67 20 330 190 649 187 940 -10 31 -21 62 -45 69 -54 12 -14 10 -16 -18 -16 -40 0 -39 -10 4 -38 l35 -22 0 32 1 33 24 -27 c48 -55 111 -23 134 68 14 54 14 154 1 154 -5 0 -10 13 -10 29 0 39 -9 61 -26 61 -8 0 -14 9 -14 20 0 13 -7 20 -20 20 -13 0 -20 7 -20 20 0 11 -7 20 -15 20 -8 0 -15 5 -15 10 0 6 -13 10 -30 10 -20 0 -30 5 -30 15 0 10 -11 15 -35 15 -24 0 -35 5 -35 15 0 10 -11 15 -35 15 -19 0 -35 -5 -35 -11z"></path>
			<path id="pbYHjKaYE" d="M1633 2368 c-29 -5 -53 -14 -53 -19 0 -5 -11 -9 -25 -9 -16 0 -25 -6 -25 -15 0 -9 -9 -15 -25 -15 -21 0 -25 -5 -25 -30 l0 -30 48 31 c65 41 132 59 224 59 71 0 78 2 78 20 0 18 -6 20 -72 19 -40 -1 -97 -6 -125 -11z"></path>
			<path id="ptmcACwNw" d="M1850 2356 c0 -13 28 -26 58 -26 6 0 12 9 12 20 0 16 -7 20 -35 20 -23 0 -35 -5 -35 -14z"></path>
			<path id="pHLbIocHz" d="M2022 2308 c3 -7 19 -18 36 -25 31 -13 32 -12 32 12 0 22 -4 25 -36 25 -23 0 -34 -4 -32 -12z"></path>
		</g>
	</g>
	<g id="lToHpiWRBMH7j6gi1MryBS" fill="rgb(233,144,32)" style="transform: none;">
		<g style="transform: none;">
			<path id="p2UOcyEkH" d="M1760 2700 c0 -21 10 -24 48 -14 36 10 27 34 -13 34 -28 0 -35 -4 -35 -20z"></path>
			<path id="pxtJ1D54P" d="M1860 2706 c0 -14 29 -26 68 -26 15 0 22 6 22 20 0 17 -7 20 -45 20 -32 0 -45 -4 -45 -14z"></path>
			<path id="p5DM49D1x" d="M1660 2690 c0 -21 10 -24 48 -14 36 10 27 34 -13 34 -28 0 -35 -4 -35 -20z"></path>
			<path id="pzUmbe1Nr" d="M1970 2696 c0 -13 28 -26 58 -26 6 0 12 9 12 20 0 16 -7 20 -35 20 -23 0 -35 -5 -35 -14z"></path>
			<path id="pMdwAv8pK" d="M2060 2676 c0 -13 28 -26 58 -26 6 0 12 9 12 20 0 16 -7 20 -35 20 -23 0 -35 -5 -35 -14z"></path>
			<path id="pEA4UAX06" d="M1478 2663 c-20 -5 -25 -43 -7 -43 29 0 89 25 89 37 0 13 -44 16 -82 6z"></path>
			<path id="pywOBJgy8" d="M2152 2648 c3 -7 19 -18 36 -25 31 -13 32 -12 32 12 0 22 -4 25 -36 25 -23 0 -34 -4 -32 -12z"></path>
			<path id="p1HncP0Ch6" d="M1330 2571 c0 -27 -3 -30 -37 -33 -33 -3 -38 -7 -41 -30 -2 -20 -9 -28 -23 -28 -10 0 -19 -7 -19 -15 0 -8 -4 -15 -10 -15 -5 0 -10 -16 -10 -35 0 -19 3 -35 8 -35 4 0 20 20 35 44 29 46 140 156 158 156 5 0 9 5 9 10 0 6 -16 10 -35 10 -32 0 -35 -2 -35 -29z"></path>
			<path id="pczlK7yav" d="M2270 2592 c0 -5 12 -15 27 -23 42 -22 99 -103 113 -158 13 -53 40 -72 40 -27 0 52 -12 86 -31 86 -15 0 -19 7 -19 35 0 32 -2 35 -30 35 -27 0 -30 3 -30 30 0 28 -3 30 -35 30 -19 0 -35 -4 -35 -8z"></path>
			<path id="pEQ1WU0nj" d="M1625 2470 c-128 -14 -274 -64 -404 -140 -19 -11 -36 -18 -38 -16 -2 2 1 15 6 30 10 23 8 26 -13 26 -19 0 -26 -9 -39 -51 -10 -28 -17 -69 -17 -90 0 -37 1 -39 33 -39 22 0 44 10 67 30 19 16 40 29 47 30 6 0 13 3 15 8 4 9 102 62 168 91 106 45 369 65 428 32 11 -6 -3 -8 -46 -4 -51 5 -62 3 -62 -9 0 -17 29 -28 76 -28 54 0 204 -49 297 -97 99 -51 174 -108 154 -117 -6 -3 4 -3 23 0 37 7 80 39 80 61 0 7 5 13 10 13 6 0 10 16 10 35 0 19 -4 35 -10 35 -5 0 -10 -3 -10 -7 0 -5 -10 -19 -21 -33 l-21 -25 -42 39 c-179 167 -445 254 -691 226z"></path>
			<path id="p7qCZUc2i" d="M1610 2360 c0 -5 -13 -10 -30 -10 -16 0 -30 -4 -30 -9 0 -5 -13 -11 -30 -14 -21 -5 -30 -12 -30 -27 0 -14 -7 -20 -23 -20 -27 0 -57 -28 -57 -53 0 -9 -7 -17 -15 -17 -8 0 -15 -7 -15 -15 0 -8 -4 -15 -10 -15 -5 0 -10 -16 -10 -35 0 -46 13 -44 43 7 51 86 155 164 245 183 44 9 43 35 -3 35 -19 0 -35 -4 -35 -10z"></path>
			<path id="pfZ2FRjLq" d="M2416 2328 c-10 -38 -7 -48 14 -48 16 0 20 7 20 35 0 40 -24 49 -34 13z"></path>
		</g>
	</g>
	<g id="l5Zm91MZYK56QsBEHIFJdx" fill="rgb(91,128,184)" style="transform: none;">
		<g style="transform: none;">
			<path id="pyIHVc9we" d="M1348 3113 c-33 -8 -20 -33 17 -33 28 0 35 4 35 20 0 20 -14 23 -52 13z"></path>
			<path id="p1Ci8Sq03q" d="M1880 3080 c0 -16 7 -20 35 -20 40 0 49 24 13 34 -38 10 -48 7 -48 -14z"></path>
			<path id="pddtBJcD6" d="M2210 3010 c0 -16 7 -20 35 -20 40 0 49 24 13 34 -38 10 -48 7 -48 -14z"></path>
			<path id="pCUnbGEhS" d="M842 2974 c-59 -29 -66 -44 -22 -44 46 0 80 20 80 47 0 12 -1 23 -3 23 -2 0 -26 -12 -55 -26z"></path>
			<path id="p12KAd9dnT" d="M713 2895 l-28 -24 38 -1 c33 0 37 3 37 25 0 31 -11 32 -47 0z"></path>
			<path id="paQzNM6Dp" d="M2560 2865 c0 -22 4 -25 35 -25 43 0 44 10 6 33 -38 22 -41 22 -41 -8z"></path>
			<path id="pn9dMSPJO" d="M2712 2759 c2 -29 7 -34 31 -37 21 -3 27 -9 27 -28 0 -20 5 -24 31 -24 l30 0 -19 28 c-19 26 -47 52 -85 82 -17 13 -18 11 -15 -21z"></path>
			<path id="p1DJau5nGn" d="M538 2740 l-28 -35 26 -3 c33 -4 36 -1 32 39 l-3 34 -27 -35z"></path>
			<path id="ppHzO3wWe" d="M481 2664 c-27 -35 -26 -44 4 -44 22 0 25 4 25 35 0 19 -2 35 -4 35 -3 0 -14 -12 -25 -26z"></path>
			<path id="pDBDpcJFJ" d="M2880 2553 c0 -16 11 -61 25 -102 14 -40 28 -97 31 -127 4 -33 12 -54 19 -54 41 0 17 170 -41 281 -18 37 -34 37 -34 2z"></path>
			<path id="pyKTme1rZ" d="M435 2338 c-31 -107 -49 -388 -26 -403 5 -3 7 -21 4 -40 -10 -60 59 -407 84 -424 6 -3 13 -24 16 -46 4 -22 11 -41 17 -43 5 -2 10 -12 10 -22 0 -29 22 -70 37 -70 8 0 13 -12 13 -35 0 -28 4 -35 20 -35 15 0 20 -7 20 -30 0 -31 19 -80 31 -80 4 0 10 -11 13 -25 4 -14 11 -25 16 -25 6 0 10 -7 10 -15 0 -8 5 -15 10 -15 6 0 10 -7 10 -15 0 -8 7 -15 15 -15 8 0 15 -9 15 -20 0 -11 5 -20 10 -20 6 0 10 -7 10 -15 0 -8 7 -15 15 -15 9 0 15 -9 15 -21 0 -12 8 -23 19 -26 15 -4 21 -15 23 -46 4 -51 22 -58 43 -17 16 31 16 31 -29 83 -74 87 -173 244 -235 371 -87 179 -137 340 -166 533 -21 145 -18 173 9 78 76 -266 209 -489 411 -690 60 -60 129 -123 152 -139 l42 -28 26 30 c33 40 107 94 173 127 61 30 66 45 17 45 -19 0 -35 -4 -35 -10 0 -5 -9 -10 -19 -10 -11 0 -26 -7 -35 -15 -8 -8 -19 -15 -24 -15 -6 0 -12 -4 -14 -9 -1 -4 -12 -11 -24 -15 -17 -5 -39 9 -106 68 -238 208 -414 510 -483 826 -9 41 -19 135 -22 208 l-6 132 -33 0 c-32 0 -34 -3 -49 -52z"></path>
			<path id="p1GbRu3V0j" d="M326 2278 c-10 -38 -7 -48 14 -48 16 0 20 7 20 35 0 40 -24 49 -34 13z"></path>
			<path id="p1E00bCdgo" d="M316 2198 c-10 -38 -7 -48 14 -48 16 0 20 7 20 35 0 40 -24 49 -34 13z"></path>
			<path id="pK81mt5ng" d="M2880 2166 c0 -8 -7 -16 -15 -20 -8 -3 -15 -15 -15 -26 0 -11 -4 -20 -10 -20 -19 0 -50 -35 -50 -57 0 -19 -5 -23 -30 -23 -25 0 -30 -4 -30 -25 0 -22 -4 -25 -35 -25 -19 0 -35 -4 -35 -10 0 -5 -7 -10 -15 -10 -8 0 -15 -7 -15 -15 0 -9 -9 -15 -25 -15 -20 0 -25 -5 -25 -25 0 -14 4 -25 8 -25 15 0 186 118 228 157 44 41 114 129 114 144 0 5 -11 9 -25 9 -15 0 -25 -6 -25 -14z"></path>
			<path id="p10rFPFZoR" d="M2290 2150 c0 -5 5 -10 10 -10 6 0 -4 -14 -22 -30 l-33 -30 40 2 c38 3 40 4 43 41 3 32 0 37 -17 37 -12 0 -21 -4 -21 -10z"></path>
			<path id="p5s9Gj3cU" d="M307 2058 c-4 -20 -4 -52 2 -115 1 -7 8 -13 16 -13 12 0 15 15 15 75 0 57 -3 75 -14 75 -8 0 -16 -10 -19 -22z"></path>
			<path id="p3NJXCemb" d="M2140 1980 l-35 -29 38 -1 c35 0 37 2 37 30 0 17 -1 30 -3 30 -1 0 -18 -13 -37 -30z"></path>
			<path id="p1E6DE36pZ" d="M310 1858 c0 -30 13 -58 26 -58 9 0 14 12 14 35 0 28 -4 35 -20 35 -11 0 -20 -6 -20 -12z"></path>
			<path id="phNWJZDlj" d="M2490 1850 c0 -5 -7 -10 -15 -10 -8 0 -15 -9 -15 -20 0 -15 -7 -20 -25 -20 -21 0 -25 -5 -25 -31 0 -24 3 -29 13 -22 6 6 40 31 75 57 34 26 62 49 62 52 0 2 -16 4 -35 4 -19 0 -35 -4 -35 -10z"></path>
			<path id="pjmJ3pDEZ" d="M1970 1820 l-35 -29 38 -1 c35 0 37 2 37 30 0 17 -1 30 -3 30 -1 0 -18 -13 -37 -30z"></path>
			<path id="pVEQlznyo" d="M320 1780 c0 -37 24 -110 36 -110 15 0 17 23 8 83 -5 27 -11 37 -25 37 -11 0 -19 -4 -19 -10z"></path>
			<path id="pLYx5C8K0" d="M2330 1709 c0 -6 -7 -17 -15 -25 -8 -9 -15 -31 -15 -50 0 -24 5 -34 15 -34 8 0 15 6 15 13 0 7 13 34 30 60 l30 47 -30 0 c-17 0 -30 -5 -30 -11z"></path>
			<path id="pI1Euo7ni" d="M351 1623 c0 -10 10 -47 22 -82 25 -74 47 -91 47 -37 0 20 -4 36 -10 36 -5 0 -10 12 -10 28 0 47 -11 72 -31 72 -12 0 -19 -7 -18 -17z"></path>
			<path id="p122sLiRnO" d="M2822 1493 c2 -43 -3 -56 -50 -126 -100 -148 -249 -279 -415 -366 -90 -48 -115 -67 -100 -82 6 -6 45 -21 88 -34 43 -13 75 -21 71 -18 -3 4 7 12 23 19 122 51 337 240 428 374 59 89 133 221 133 240 0 10 -16 12 -69 7 -62 -5 -69 -4 -74 14 -3 10 -13 19 -22 19 -13 0 -15 -9 -13 -47z"></path>
			<path id="p182RDY4dy" d="M413 1428 c19 -46 37 -48 37 -4 0 32 -3 36 -25 36 -24 0 -25 -1 -12 -32z"></path>
			<path id="pVPI2m5It" d="M1400 1260 c0 -21 10 -24 48 -14 36 10 27 34 -13 34 -28 0 -35 -4 -35 -20z"></path>
			<path id="p12pxkeTvJ" d="M1810 1230 c31 -44 40 -45 40 -6 0 33 -2 36 -31 36 l-30 0 21 -30z"></path>
			<path id="pULA3if3D" d="M1660 1080 c0 -15 7 -20 25 -20 14 0 25 -5 25 -11 0 -7 -7 -8 -17 -4 -10 4 -39 10 -65 12 -39 5 -48 3 -48 -10 0 -10 17 -19 50 -27 27 -6 74 -27 105 -45 l55 -34 0 29 c0 19 -6 30 -17 33 -14 4 -14 5 3 6 14 1 24 -6 27 -19 3 -12 14 -20 25 -20 14 0 21 -8 24 -30 4 -24 1 -30 -14 -30 -16 0 -14 -6 13 -49 16 -28 38 -82 47 -120 10 -43 21 -71 29 -71 14 0 15 1 19 80 8 139 -77 271 -214 331 -55 24 -72 24 -72 -1z"></path>
			<path id="plQoABCwr" d="M1950 1095 c0 -7 81 -65 92 -65 4 0 8 11 8 25 0 16 -6 25 -15 25 -8 0 -15 5 -15 10 0 6 -16 10 -35 10 -19 0 -35 -2 -35 -5z"></path>
			<path id="p15yil6fmB" d="M1339 1022 c-42 -36 -99 -113 -99 -133 0 -6 24 11 53 38 60 57 94 77 160 94 28 7 47 17 47 26 0 11 -14 13 -61 11 -52 -3 -66 -8 -100 -36z"></path>
			<path id="pIA8O6Mrj" d="M678 972 c12 -16 28 -35 37 -42 15 -12 16 -10 13 26 -3 36 -5 39 -37 42 l-33 3 20 -29z"></path>
			<path id="p13vWnuWm" d="M1906 628 c-3 -13 -5 -32 -5 -43 0 -16 4 -13 14 10 8 17 14 36 15 43 0 21 -17 13 -24 -10z"></path>
		</g>
	</g>
	<g id="l6SCLm4j98XnHG66ft8APSe" fill="rgb(229,132,33)" style="transform: none;">
		<g style="transform: none;">
			<path id="p4vArK9Dq" d="M1740 2700 c0 -21 16 -25 58 -14 39 11 27 34 -18 34 -33 0 -40 -3 -40 -20z"></path>
			<path id="plC9jbCw4" d="M1890 2706 c0 -13 28 -26 58 -26 6 0 12 9 12 20 0 16 -7 20 -35 20 -23 0 -35 -5 -35 -14z"></path>
			<path id="p1AWxf7J4C" d="M1563 2687 c-32 -7 -43 -15 -43 -28 0 -23 4 -23 85 -3 41 10 65 22 65 30 0 16 -43 17 -107 1z"></path>
			<path id="pNfJBpNfG" d="M2030 2687 c0 -7 30 -22 70 -34 l70 -20 0 23 c0 21 -5 24 -35 24 -19 0 -35 5 -35 10 0 6 -16 10 -35 10 -22 0 -35 -5 -35 -13z"></path>
			<path id="psXQypM6R" d="M1393 2633 c-12 -4 -19 -53 -8 -53 15 0 85 42 85 50 0 10 -55 12 -77 3z"></path>
			<path id="px26r3rUC" d="M2220 2620 c0 -8 51 -40 65 -40 3 0 5 11 5 25 0 22 -4 25 -35 25 -19 0 -35 -4 -35 -10z"></path>
			<path id="pKnDxi9bn" d="M2349 2524 c23 -26 41 -51 41 -55 0 -5 5 -9 10 -9 6 0 10 16 10 35 0 24 -5 35 -15 35 -8 0 -15 9 -15 20 0 16 -7 20 -36 20 l-36 0 41 -46z"></path>
			<path id="p10zBXz4wN" d="M1273 2540 c-3 -11 -12 -20 -19 -20 -9 0 -14 -12 -14 -36 l0 -36 55 53 c30 30 55 55 55 57 0 1 -16 2 -36 2 -27 0 -37 -5 -41 -20z"></path>
			<path id="pe13SGZOO" d="M2411 2418 c5 -18 9 -34 9 -35 0 -2 7 -3 15 -3 10 0 15 11 15 35 0 30 -3 35 -24 35 -23 0 -24 -2 -15 -32z"></path>
			<path id="pYBGygpWv" d="M1570 2419 c-117 -25 -142 -34 -215 -72 -22 -11 -53 -28 -70 -36 -16 -9 -32 -18 -35 -21 -3 -3 -12 -9 -21 -15 -10 -5 -31 -21 -49 -34 l-32 -24 7 34 c4 19 18 58 31 88 13 29 24 55 24 57 0 2 -11 4 -25 4 -20 0 -25 -5 -25 -24 0 -13 -5 -26 -11 -28 -15 -5 -49 -152 -49 -210 l0 -48 40 0 c22 0 40 4 40 10 0 17 151 131 181 137 16 3 29 9 29 14 0 5 14 9 30 9 17 0 30 -4 30 -10 0 -5 -12 -10 -26 -10 -17 0 -28 -6 -31 -20 -3 -11 -9 -20 -14 -20 -5 0 -9 -7 -9 -16 0 -8 -7 -22 -15 -30 -8 -9 -15 -28 -15 -44 0 -16 -4 -30 -10 -32 -5 -1 -13 -31 -16 -65 -6 -54 -5 -63 10 -63 9 0 16 1 16 3 0 2 5 29 11 61 16 86 56 163 117 223 54 53 54 53 26 54 -25 0 -21 3 21 18 28 10 51 15 53 10 2 -4 22 -1 45 8 67 25 243 22 342 -5 165 -47 374 -169 342 -201 -10 -10 -6 -12 18 -9 26 3 30 7 33 37 3 31 2 33 -12 22 -11 -10 -16 -10 -16 -2 0 27 -177 166 -223 176 -7 1 -30 10 -52 20 -44 20 -116 42 -185 56 -51 11 -237 10 -290 -2z"></path>
			<path id="p12EqmwFwA" d="M2408 2290 l-16 -50 23 0 c26 0 35 17 35 66 0 51 -24 42 -42 -16z"></path>
		</g>
	</g>
	<g id="l71Kv6rl8aeYIpaxJ6xiZfR" fill="rgb(224,118,35)" style="transform: none;">
		<g style="transform: none;">
			<path id="pd30lniFV" d="M1730 2700 c0 -21 10 -24 48 -14 36 10 27 34 -13 34 -28 0 -35 -4 -35 -20z"></path>
			<path id="pr9yoGKx" d="M1900 2706 c0 -13 28 -26 58 -26 6 0 12 9 12 20 0 16 -7 20 -35 20 -23 0 -35 -5 -35 -14z"></path>
			<path id="p11pv1hJ1" d="M1650 2690 c0 -21 10 -24 48 -14 36 10 27 34 -13 34 -28 0 -35 -4 -35 -20z"></path>
			<path id="pEHjk1MWU" d="M2070 2677 c0 -7 25 -21 56 -30 31 -10 83 -31 116 -47 33 -17 62 -30 64 -30 2 0 4 11 4 25 0 18 -5 25 -20 25 -11 0 -20 5 -20 10 0 6 -16 10 -35 10 -24 0 -35 5 -35 15 0 10 -10 15 -30 15 -16 0 -30 5 -30 10 0 6 -16 10 -35 10 -22 0 -35 -5 -35 -13z"></path>
			<path id="pEizPCLNw" d="M1450 2636 c0 -23 2 -24 35 -13 19 6 35 16 35 24 0 8 -13 13 -35 13 -30 0 -35 -3 -35 -24z"></path>
			<path id="p1FvctviTO" d="M1360 2595 c0 -22 -4 -25 -35 -25 -32 0 -35 -2 -35 -30 0 -27 -3 -30 -30 -30 -23 0 -30 -4 -30 -20 0 -11 -7 -20 -15 -20 -9 0 -15 -9 -15 -25 0 -16 -6 -25 -15 -25 -8 0 -15 -9 -15 -20 0 -11 -4 -20 -10 -20 -5 0 -10 -16 -10 -35 0 -49 15 -44 45 17 51 102 115 172 203 223 41 25 41 35 -3 35 -31 0 -35 -3 -35 -25z"></path>
			<path id="pPTJLFpTA" d="M2380 2495 c0 -3 9 -22 19 -43 20 -39 21 -43 21 -67 0 -8 7 -15 15 -15 18 0 20 38 4 93 -8 30 -15 37 -34 37 -14 0 -25 -2 -25 -5z"></path>
			<path id="p16IdUvsAa" d="M1535 2355 c-77 -21 -105 -33 -111 -50 -4 -10 -13 -13 -24 -10 -10 3 -25 -2 -34 -10 -9 -9 -16 -14 -16 -10 0 20 -180 -109 -199 -143 -20 -36 -24 2 -8 76 21 95 21 92 -1 92 -25 0 -42 -73 -49 -217 l-6 -113 36 0 c26 0 41 6 49 20 7 11 18 20 25 20 7 0 13 4 13 10 0 14 101 110 116 110 10 0 10 -9 -2 -42 -8 -24 -18 -82 -21 -130 -6 -85 -5 -88 16 -88 19 0 21 5 21 58 0 235 167 413 398 424 104 5 69 18 -45 17 -60 0 -130 -6 -158 -14z"></path>
			<path id="pDvv9Ajy7" d="M2390 2242 c0 -5 -21 -33 -47 -63 -43 -50 -45 -54 -24 -57 35 -5 51 5 51 33 0 18 5 25 20 25 16 0 20 7 20 35 0 19 -4 35 -10 35 -5 0 -10 -4 -10 -8z"></path>
			<path id="pZlGAFIUp" d="M1410 1515 c0 -31 3 -35 26 -35 14 0 24 3 22 8 -35 73 -48 80 -48 27z"></path>
			<path id="p14QoQXc5k" d="M1490 1398 c0 -34 3 -38 25 -38 14 0 25 -4 25 -10 0 -5 -9 -10 -20 -10 -16 0 -20 -7 -20 -35 0 -32 3 -35 28 -35 l27 1 -25 21 c-16 14 -19 19 -7 15 9 -4 17 -2 17 3 0 6 9 10 20 10 28 0 25 8 -25 65 l-45 50 0 -37z"></path>
		</g>
	</g>
	<g id="l4cblcPRbtUdkNkEMJDnZbw" fill="rgb(83,118,175)" style="transform: none;">
		<g style="transform: none;">
			<path id="pTZeEE4Pu" d="M2843 2573 c3 -21 22 -90 42 -153 25 -80 36 -132 36 -172 -1 -67 13 -75 36 -20 22 52 12 155 -26 265 -34 99 -45 117 -73 117 -17 0 -19 -5 -15 -37z"></path>
			<path id="pZGqA9NnL" d="M461 2421 c-49 -128 -77 -321 -46 -321 14 0 17 13 30 113 4 26 14 71 23 100 l16 52 7 -130 c4 -71 14 -166 24 -210 66 -315 244 -622 480 -828 110 -97 126 -105 159 -81 30 22 33 40 8 48 -32 10 -200 168 -272 255 -227 274 -351 634 -333 970 l6 111 -36 0 c-35 0 -36 -1 -66 -79z"></path>
			<path id="phn8HarR6" d="M400 1945 c0 -48 2 -55 20 -55 16 0 20 7 20 33 0 47 -10 77 -26 77 -10 0 -14 -15 -14 -55z"></path>
			<path id="pjrZjFCcX" d="M2690 1965 c0 -31 11 -32 47 0 l28 24 -37 1 c-34 0 -38 -3 -38 -25z"></path>
			<path id="p1AckGunvN" d="M2610 1915 c0 -30 3 -30 41 -8 38 23 37 33 -6 33 -31 0 -35 -3 -35 -25z"></path>
			<path id="plSrgzk5N" d="M414 1823 c16 -140 27 -183 47 -183 23 0 23 -1 5 91 -8 41 -17 91 -21 112 -4 25 -11 37 -22 37 -13 0 -15 -9 -9 -57z"></path>
			<path id="p1F3mqeeIt" d="M2420 1779 l0 -30 30 21 c44 31 45 40 6 40 -33 0 -36 -2 -36 -31z"></path>
			<path id="p1CmQgkmZo" d="M490 1504 c0 -14 5 -44 12 -65 9 -31 16 -39 34 -39 l23 0 -22 62 c-24 67 -47 88 -47 42z"></path>
			<path id="pN4hPrybU" d="M2813 1523 c-7 -2 -13 -12 -13 -20 0 -23 -81 -143 -155 -227 -81 -93 -201 -184 -322 -244 -84 -42 -93 -49 -93 -75 0 -23 7 -31 46 -47 25 -11 58 -23 72 -26 23 -5 22 -2 -11 18 l-38 24 58 29 c106 52 227 138 311 222 81 82 189 231 210 293 10 27 9 30 -6 28 -11 -2 -16 3 -14 15 3 17 -17 22 -45 10z"></path>
			<path id="p17HT4DWlN" d="M560 1320 c0 -31 18 -80 30 -80 4 0 10 -13 14 -30 4 -24 11 -30 31 -30 14 0 25 2 25 4 0 15 -82 166 -90 166 -6 0 -10 -13 -10 -30z"></path>
			<path id="pwf7IXWsX" d="M1360 1250 c0 -21 10 -24 48 -14 36 10 27 34 -13 34 -28 0 -35 -4 -35 -20z"></path>
			<path id="pC5N92OkE" d="M1510 1050 c0 -17 7 -20 40 -20 33 0 40 3 40 20 0 17 -7 20 -40 20 -33 0 -40 -3 -40 -20z"></path>
			<path id="p15xkVa5sV" d="M1420 1040 c0 -21 10 -24 48 -14 36 10 27 34 -13 34 -28 0 -35 -4 -35 -20z"></path>
			<path id="p11YX48zbO" d="M1630 1037 c0 -8 16 -18 35 -24 33 -11 35 -10 35 13 0 21 -5 24 -35 24 -22 0 -35 -5 -35 -13z"></path>
			<path id="pfgOMkTN5" d="M740 1006 c0 -20 5 -36 10 -36 6 0 10 -7 10 -15 0 -10 10 -15 30 -15 l31 0 -31 44 c-41 60 -50 64 -50 22z"></path>
			<path id="pqIgxDVLw" d="M1332 1018 c-7 -7 -12 -22 -12 -34 l0 -23 45 26 c25 13 45 29 45 34 0 13 -64 11 -78 -3z"></path>
			<path id="p13q39380Q" d="M1797 928 c27 -29 59 -68 69 -85 24 -42 34 -42 34 2 0 31 -3 35 -25 35 -22 0 -25 4 -25 33 0 42 -26 67 -70 67 l-34 0 51 -52z"></path>
			<path id="p16tmWaJj" d="M1900 758 c0 -30 13 -58 26 -58 9 0 14 12 14 35 0 28 -4 35 -20 35 -11 0 -20 -6 -20 -12z"></path>
		</g>
	</g>
	<g id="l3VzwBu1DVg530KgM4pbrv7" fill="rgb(220,106,36)" style="transform: none;">
		<g style="transform: none;">
			<path id="pnYcv5p21" d="M1910 2706 c0 -14 14 -19 98 -31 37 -6 42 -5 42 13 0 16 -9 20 -52 26 -76 9 -88 8 -88 -8z"></path>
			<path id="pVy4eZxA" d="M1573 2693 c-15 -3 -23 -12 -23 -24 0 -22 6 -23 66 -8 82 21 44 49 -43 32z"></path>
			<path id="p1FonfiMHB" d="M2182 2638 c3 -7 19 -18 36 -25 31 -13 32 -12 32 12 0 22 -4 25 -36 25 -23 0 -34 -4 -32 -12z"></path>
			<path id="pkqTIo4NF" d="M1300 2549 l0 -30 30 21 c44 31 45 40 6 40 -33 0 -36 -2 -36 -31z"></path>
			<path id="p6TuhErPb" d="M1220 2470 c0 -23 -4 -30 -20 -30 -16 0 -20 -7 -20 -35 0 -19 3 -35 8 -35 4 1 26 30 49 65 l42 65 -29 0 c-27 0 -30 -3 -30 -30z"></path>
			<path id="pJfMndPMF" d="M2413 2425 c6 -19 16 -35 24 -35 8 0 13 13 13 35 0 30 -3 35 -24 35 -23 0 -24 -2 -13 -35z"></path>
			<path id="pezww6LSE" d="M1140 2324 c0 -44 18 -42 37 4 13 31 12 32 -12 32 -22 0 -25 -4 -25 -36z"></path>
			<path id="p6LiUGu9j" d="M1107 2240 c-4 -16 -9 -59 -13 -95 -6 -56 -4 -65 9 -65 11 0 18 12 22 38 3 20 10 59 15 85 13 65 13 67 -9 67 -13 0 -20 -9 -24 -30z"></path>
			<path id="pNNgzgUgP" d="M1375 2213 c-33 -21 -61 -41 -63 -45 -2 -4 -9 -8 -16 -8 -15 0 -116 -96 -116 -110 0 -6 -5 -10 -11 -10 -6 0 -19 -10 -30 -22 l-18 -23 -1 29 c0 24 -2 27 -15 16 -16 -13 -19 -58 -9 -134 7 -45 7 -46 43 -46 25 0 39 6 46 18 33 59 54 89 85 120 28 28 36 32 38 19 7 -36 30 -14 47 44 10 33 38 89 61 125 23 35 37 64 31 64 -7 0 -39 -17 -72 -37z"></path>
			<path id="pbjv3iDgc" d="M2380 2223 c0 -5 -15 -24 -33 -44 -63 -70 -63 -69 -28 -69 21 0 31 5 31 15 0 8 5 15 11 15 20 0 39 29 39 59 0 17 -4 31 -10 31 -5 0 -10 -3 -10 -7z"></path>
			<path id="p10GVU53QC" d="M1304 1868 c3 -57 15 -134 26 -173 11 -38 20 -73 20 -77 0 -5 11 -8 25 -8 24 0 24 1 11 38 -27 75 -50 205 -55 310 -1 6 -8 12 -18 12 -14 0 -15 -11 -9 -102z"></path>
			<path id="p1FIioXayi" d="M1430 1475 c0 -32 2 -35 30 -35 l30 0 -22 35 c-29 44 -38 44 -38 0z"></path>
			<path id="psXj1bHHI" d="M1500 1315 c0 -30 3 -35 23 -35 21 1 21 1 4 14 -17 13 -16 15 12 21 44 9 41 35 -4 35 -33 0 -35 -2 -35 -35z"></path>
		</g>
	</g>
	<g id="l1emkL9ERMY1LstITWUUI8G" fill="rgb(78,110,169)" style="transform: none;">
		<g style="transform: none;">
			<path id="pyatrHVwH" d="M2760 2670 c0 -16 16 -69 36 -117 45 -108 83 -254 91 -350 3 -40 9 -73 14 -73 4 0 20 25 35 55 32 67 30 102 -21 268 -28 94 -30 108 -14 87 l20 -25 -6 25 c-17 63 -97 160 -132 160 -19 0 -23 -5 -23 -30z"></path>
			<path id="pd9dmCu28" d="M522 2551 c-12 -21 -22 -55 -22 -75 0 -29 -4 -36 -20 -36 -15 0 -20 -7 -20 -25 0 -14 -4 -25 -10 -25 -5 0 -10 -16 -10 -35 0 -19 -4 -35 -9 -35 -8 0 -31 -119 -31 -164 0 -42 28 -32 35 12 13 85 44 201 69 252 l26 55 -6 -100 c-19 -335 109 -712 336 -986 72 -87 225 -231 270 -254 24 -12 30 -11 68 13 48 31 53 42 17 42 -16 0 -55 26 -112 73 -254 212 -423 504 -488 842 -18 90 -21 308 -5 370 5 22 10 57 10 78 0 36 -1 37 -38 37 -34 0 -41 -4 -60 -39z"></path>
			<path id="p5cB4tP6t" d="M400 1928 c0 -13 7 -76 17 -140 14 -102 19 -118 35 -118 10 0 18 1 18 3 0 1 -9 63 -20 137 -11 74 -20 136 -20 138 0 1 -7 2 -15 2 -9 0 -15 -9 -15 -22z"></path>
			<path id="p1FKbcGssK" d="M2530 1880 c0 -5 -7 -10 -15 -10 -10 0 -15 -10 -15 -30 l0 -30 50 32 c27 18 50 36 50 41 0 4 -16 7 -35 7 -19 0 -35 -4 -35 -10z"></path>
			<path id="pQOFLGIim" d="M2320 1675 c0 -44 9 -44 38 0 l22 35 -30 0 c-28 0 -30 -3 -30 -35z"></path>
			<path id="p3iBIg89d" d="M450 1634 c0 -14 5 -45 11 -70 8 -32 16 -44 30 -44 23 0 23 5 2 80 -17 62 -43 82 -43 34z"></path>
			<path id="pDsSaxJVe" d="M2718 1447 c-65 -102 -193 -234 -282 -293 -111 -73 -146 -94 -156 -94 -5 0 -29 -9 -55 -20 -44 -19 -46 -21 -43 -57 3 -36 4 -38 87 -70 46 -19 85 -32 87 -30 2 2 -19 19 -48 36 l-52 33 100 51 c184 96 312 211 429 387 30 45 52 86 49 91 -3 5 -1 9 4 9 6 0 12 7 16 15 4 12 -4 15 -42 15 l-47 0 -47 -73z"></path>
			<path id="pa89kitFK" d="M530 1386 c0 -32 3 -36 25 -36 24 0 25 1 12 32 -19 46 -37 48 -37 4z"></path>
			<path id="p1HjyqLOmD" d="M1270 1215 c0 -24 1 -25 32 -12 46 19 48 37 4 37 -32 0 -36 -3 -36 -25z"></path>
			<path id="pBGx1E4Zi" d="M620 1195 c0 -31 3 -35 25 -35 30 0 30 3 8 41 -23 38 -33 37 -33 -6z"></path>
			<path id="pHM3kcAQb" d="M1530 1053 c0 -13 9 -19 35 -20 29 -3 35 0 35 17 0 16 -7 20 -35 20 -27 0 -35 -4 -35 -17z"></path>
			<path id="p15VyKgM7p" d="M1360 1020 c0 -14 -7 -20 -23 -20 -28 0 -47 -17 -47 -43 0 -18 3 -17 33 6 18 14 50 32 70 41 47 19 48 36 2 36 -28 0 -35 -4 -35 -20z"></path>
			<path id="pTsyJtSgE" d="M1710 1003 c0 -5 16 -18 35 -31 l35 -22 0 30 c0 28 -3 30 -35 30 -19 0 -35 -3 -35 -7z"></path>
			<path id="pVTT6SJNt" d="M1838 885 c22 -31 48 -82 58 -115 20 -67 44 -81 44 -25 0 19 -4 35 -10 35 -5 0 -10 14 -10 30 0 20 -5 30 -15 30 -10 0 -15 10 -15 30 0 20 -5 30 -15 30 -8 0 -15 9 -15 20 0 16 -7 20 -31 20 l-30 0 39 -55z"></path>
			<path id="p7WjaR3sy" d="M830 886 c0 -33 2 -36 31 -36 l30 0 -21 30 c-31 44 -40 45 -40 6z"></path>
			<path id="pqnF678LS" d="M1910 660 c0 -43 14 -54 24 -17 10 37 7 57 -9 57 -11 0 -15 -11 -15 -40z"></path>
		</g>
	</g>
	<g id="l6gyItTuGQfwYVXOWFSpblU" fill="rgb(216,96,37)" style="transform: none;">
		<g style="transform: none;">
			<path id="p16PyU2cxI" d="M1710 2700 c0 -21 16 -25 58 -14 39 11 27 34 -18 34 -33 0 -40 -3 -40 -20z"></path>
			<path id="pM94ui7o" d="M1920 2706 c0 -13 28 -26 58 -26 6 0 12 9 12 20 0 16 -7 20 -35 20 -23 0 -35 -5 -35 -14z"></path>
			<path id="pIHJeIjmU" d="M1480 2660 c0 -5 -13 -10 -30 -10 -25 0 -30 -4 -30 -24 l0 -24 65 22 c71 23 86 46 30 46 -19 0 -35 -4 -35 -10z"></path>
			<path id="pLlq7Dutq" d="M1340 2580 l0 -30 35 22 c44 29 44 38 0 38 -32 0 -35 -2 -35 -30z"></path>
			<path id="pDkxjXlkM" d="M2290 2583 c0 -5 13 -17 29 -27 15 -11 41 -39 57 -62 16 -24 32 -44 37 -44 4 0 7 16 7 35 0 24 -5 35 -15 35 -8 0 -15 7 -15 15 0 28 -33 55 -67 55 -18 0 -33 -3 -33 -7z"></path>
			<path id="p8UUAkEDj" d="M1190 2425 c0 -44 9 -44 38 0 l22 35 -30 0 c-28 0 -30 -3 -30 -35z"></path>
			<path id="p16t03T6eq" d="M2420 2355 c0 -40 -7 -70 -26 -108 -15 -29 -29 -54 -33 -57 -3 -3 -12 -13 -20 -22 -12 -16 -11 -18 18 -18 24 0 31 4 31 20 0 11 6 20 13 20 17 0 37 42 37 75 0 14 5 25 10 25 6 0 10 27 10 60 0 53 -2 60 -20 60 -18 0 -20 -7 -20 -55z"></path>
			<path id="ppgl6YbP7" d="M1116 2282 c-9 -32 -19 -86 -22 -120 -6 -52 -4 -62 8 -62 16 0 28 28 28 67 0 12 11 56 24 98 l24 75 -23 0 c-19 0 -25 -9 -39 -58z"></path>
			<path id="pARyvhe0d" d="M1325 2104 c-115 -103 -125 -114 -170 -196 -13 -25 -25 -23 -25 5 0 39 -12 67 -28 67 -25 0 -8 -141 30 -242 9 -23 17 -28 44 -28 28 0 35 4 40 26 4 15 19 46 33 71 14 24 31 53 37 64 6 10 18 27 26 36 9 10 21 51 27 91 6 41 18 89 26 108 18 43 10 43 -40 -2z"></path>
			<path id="p2KzGfyld" d="M1304 1810 c12 -133 90 -340 128 -340 13 0 18 -8 18 -30 0 -16 4 -30 9 -30 5 0 11 -9 14 -20 3 -14 14 -20 31 -20 21 0 26 -5 26 -25 0 -18 5 -25 20 -25 30 0 25 14 -31 82 -87 107 -160 284 -184 451 -4 25 -11 37 -22 37 -13 0 -15 -11 -9 -80z"></path>
			<path id="p487neDbe" d="M1520 1280 c0 -14 7 -20 22 -20 20 0 21 1 3 20 -10 11 -20 20 -22 20 -1 0 -3 -9 -3 -20z"></path>
		</g>
	</g>
	<g id="l7gTAVOiiUs1B6ly91ABAEk" fill="rgb(72,102,162)" style="transform: none;">
		<g style="transform: none;">
			<path id="p10nyVjyWQ" d="M2660 2763 c0 -15 20 -65 44 -112 63 -122 94 -209 122 -341 26 -124 30 -175 14 -185 -5 -3 -10 -23 -10 -43 l1 -37 40 45 c59 67 62 90 33 232 -23 110 -54 208 -99 313 l-17 40 22 -20 c13 -11 40 -42 61 -68 22 -27 39 -43 39 -35 0 23 -66 112 -130 176 -47 48 -68 62 -91 62 -25 0 -29 -4 -29 -27z"></path>
			<path id="pk006TMnD" d="M586 2646 c-20 -23 -36 -48 -36 -55 0 -6 -4 -11 -10 -11 -5 0 -10 -7 -10 -15 0 -8 -4 -15 -8 -15 -11 0 -52 -86 -52 -110 0 -11 -4 -20 -10 -20 -5 0 -10 -13 -10 -30 0 -16 -4 -30 -10 -30 -5 0 -10 -16 -10 -35 0 -51 25 -45 39 9 13 52 98 226 111 226 5 0 7 -10 4 -22 -2 -13 -9 -68 -14 -123 -16 -163 1 -321 56 -503 81 -268 235 -502 444 -677 106 -88 110 -89 194 -49 39 19 76 34 83 34 7 0 13 7 13 15 0 10 -11 15 -35 15 -24 0 -35 -5 -35 -15 0 -10 -10 -15 -33 -15 -45 0 -99 39 -224 165 -189 190 -305 403 -369 680 -28 118 -26 357 4 482 31 132 30 143 -12 143 -29 0 -41 -8 -70 -44z"></path>
			<path id="p7wd9Y6kr" d="M400 2185 c0 -40 24 -49 34 -12 10 37 7 47 -14 47 -16 0 -20 -7 -20 -35z"></path>
			<path id="pjwMPpiVt" d="M400 1895 c0 -28 4 -35 20 -35 21 0 24 10 14 48 -10 36 -34 27 -34 -13z"></path>
			<path id="pl0JjlVZ0" d="M440 1665 c0 -28 4 -35 20 -35 21 0 24 10 14 48 -10 36 -34 27 -34 -13z"></path>
			<path id="pI8V7sldL" d="M2300 1645 c0 -37 23 -50 33 -17 2 9 8 25 12 35 6 14 2 17 -19 17 -23 0 -26 -4 -26 -35z"></path>
			<path id="pdIdFFeyB" d="M480 1515 c0 -30 3 -35 24 -35 23 0 24 2 13 35 -6 19 -16 35 -24 35 -8 0 -13 -13 -13 -35z"></path>
			<path id="pVWz8PrTE" d="M2762 1520 c-29 -4 -54 -10 -56 -11 -1 -2 -24 -35 -51 -74 -116 -165 -275 -289 -470 -363 -46 -18 -50 -23 -53 -55 -3 -33 1 -38 41 -61 46 -27 107 -44 107 -30 0 5 -16 20 -36 32 -42 27 -38 35 32 60 164 60 362 228 472 399 39 60 52 73 73 73 22 0 39 15 39 36 0 5 -33 3 -98 -6z"></path>
			<path id="pGjQnw2I5" d="M540 1355 c0 -31 3 -35 25 -35 29 0 30 2 10 40 -21 40 -35 38 -35 -5z"></path>
			<path id="p1344pJ8NB" d="M660 1125 c0 -24 5 -35 15 -35 9 0 15 -9 15 -25 0 -14 5 -25 10 -25 6 0 10 -7 10 -15 0 -8 5 -15 10 -15 6 0 10 -7 10 -15 0 -10 10 -15 30 -15 l29 0 -57 90 c-31 49 -60 90 -64 90 -5 0 -8 -16 -8 -35z"></path>
			<path id="p16aybbUAl" d="M790 936 c0 -33 2 -36 31 -36 l30 0 -21 30 c-31 44 -40 45 -40 6z"></path>
		</g>
	</g>
	<g id="l540Fany8kC6rHNTrgw6zVu" fill="rgb(212,80,38)" style="transform: none;">
		<g style="transform: none;">
			<path id="pmJjZNWza" d="M2040 2686 c0 -13 28 -26 58 -26 6 0 12 9 12 20 0 16 -7 20 -35 20 -23 0 -35 -5 -35 -14z"></path>
			<path id="ptozo8jDL" d="M2162 2648 c3 -7 19 -18 36 -25 31 -13 32 -12 32 12 0 22 -4 25 -36 25 -23 0 -34 -4 -32 -12z"></path>
			<path id="pjEl1DhVD" d="M2260 2602 c0 -8 52 -42 64 -42 3 0 6 11 6 25 0 22 -4 25 -35 25 -19 0 -35 -4 -35 -8z"></path>
			<path id="pKeCg0JgS" d="M1310 2559 l0 -30 30 21 c44 31 45 40 6 40 -33 0 -36 -2 -36 -31z"></path>
			<path id="p1FwgBtXwS" d="M1210 2460 c0 -22 -5 -30 -18 -30 -20 0 -52 -56 -52 -90 0 -11 -4 -20 -10 -20 -5 0 -10 -16 -10 -35 0 -24 5 -35 15 -35 8 0 15 6 15 13 0 20 67 154 96 192 l26 35 -31 0 c-28 0 -31 -3 -31 -30z"></path>
			<path id="pewmls1Hd" d="M2413 2285 c-11 -33 -10 -35 13 -35 21 0 24 5 24 35 0 22 -5 35 -13 35 -8 0 -18 -16 -24 -35z"></path>
			<path id="pfJERy7he" d="M1090 2155 c0 -40 24 -49 34 -12 10 37 7 47 -14 47 -16 0 -20 -7 -20 -35z"></path>
			<path id="pITa44wPg" d="M1083 1988 c7 -110 25 -218 37 -218 4 0 10 -17 14 -37 3 -21 23 -67 44 -103 35 -61 40 -65 76 -68 45 -4 51 3 61 67 l7 46 22 -60 c34 -89 48 -115 63 -115 7 0 13 -11 13 -25 0 -14 5 -25 10 -25 6 0 10 -7 10 -15 0 -8 5 -15 10 -15 6 0 10 -7 10 -15 0 -8 7 -15 15 -15 13 0 15 -9 9 -49 -7 -55 7 -81 45 -81 27 0 27 15 0 33 -20 14 -19 15 11 25 26 10 29 14 21 30 -5 10 -17 25 -27 32 -67 56 -174 276 -190 390 -2 19 -7 44 -9 56 -3 11 -5 54 -6 95 l-2 73 -29 -34 c-16 -19 -34 -44 -39 -55 -5 -11 -22 -40 -38 -65 -15 -25 -31 -59 -35 -75 -7 -26 -9 -27 -17 -12 -24 43 -40 121 -46 225 -6 103 -8 112 -26 112 -19 0 -20 -5 -14 -102z"></path>
		</g>
	</g>
	<g id="l7hRoosWMi2jvVya9J6hGHl" fill="rgb(209,70,37)" style="transform: none;">
		<g style="transform: none;">
			<path id="pt0B8bJfM" d="M1660 2709 c-106 -19 -150 -31 -150 -40 0 -5 -16 -9 -35 -9 -19 0 -35 -4 -35 -10 0 -5 -9 -10 -19 -10 -30 0 -51 -11 -51 -26 0 -8 -10 -14 -25 -14 -18 0 -25 -5 -25 -20 0 -13 -7 -20 -20 -20 -26 0 -70 -39 -70 -62 0 -10 -7 -18 -15 -18 -8 0 -15 -7 -15 -15 0 -8 -4 -15 -10 -15 -5 0 -10 -11 -10 -25 0 -16 -6 -25 -15 -25 -9 0 -15 -9 -15 -24 0 -13 -4 -26 -10 -28 -5 -1 -20 -37 -32 -78 -19 -64 -22 -100 -23 -240 0 -187 9 -235 65 -355 72 -156 284 -396 363 -410 41 -8 48 3 17 25 -26 19 -25 30 3 30 13 0 26 3 30 6 3 3 -16 32 -42 64 -68 86 -127 194 -165 305 l-33 98 -13 -34 c-7 -19 -14 -38 -15 -44 -1 -5 -3 -12 -5 -15 -1 -3 -4 -14 -5 -25 -5 -39 -14 -77 -19 -82 -10 -10 -26 10 -60 70 -146 265 -114 630 74 831 67 71 139 113 248 146 55 16 217 50 240 50 1 0 2 7 2 15 0 17 -35 18 -110 4z"></path>
			<path id="pbbpYpbFS" d="M1930 2706 c0 -14 11 -18 93 -32 32 -5 37 -4 37 14 0 15 -9 21 -46 26 -69 9 -84 8 -84 -8z"></path>
			<path id="pSy4yBkgm" d="M2080 2677 c0 -7 26 -21 58 -31 31 -10 78 -29 104 -42 58 -29 58 -29 58 0 0 26 -16 36 -61 36 -18 0 -29 5 -29 13 0 15 -62 37 -104 37 -15 0 -26 -6 -26 -13z"></path>
		</g>
	</g>
	<g id="l2gp0theJRxIySlwfBNwEve" fill="rgb(65,92,154)" style="transform: none;">
		<g style="transform: none;">
			<path id="p1DM7WhZNb" d="M2390 2907 c0 -21 7 -36 20 -44 32 -21 147 -183 189 -268 83 -168 116 -284 126 -452 6 -99 5 -114 -11 -137 -11 -14 -25 -26 -31 -26 -7 0 -13 -4 -13 -10 0 -5 -7 -10 -15 -10 -9 0 -15 -9 -15 -25 0 -14 4 -25 8 -25 13 0 122 78 160 114 63 59 75 83 73 146 -3 79 -44 270 -76 355 -15 39 -46 107 -69 152 -46 89 -49 88 37 22 26 -20 27 -20 27 -1 0 21 -94 105 -179 160 -66 42 -164 82 -203 82 -25 0 -28 -4 -28 -33z"></path>
			<path id="pyAVgABHu" d="M790 2844 c-61 -39 -200 -172 -200 -190 0 -7 -7 -14 -15 -18 -8 -3 -15 -10 -15 -16 0 -5 -9 -19 -20 -30 -12 -12 -20 -33 -20 -55 0 -28 -4 -35 -20 -35 -14 0 -20 -7 -20 -24 0 -13 -5 -26 -11 -28 -14 -5 -58 -158 -66 -230 -5 -49 -3 -58 10 -58 11 0 19 17 27 58 29 148 73 257 144 356 72 101 77 100 53 -1 -29 -122 -31 -419 -3 -538 65 -280 181 -492 375 -686 58 -58 130 -122 160 -142 l54 -36 51 23 c28 12 81 31 119 41 45 12 67 23 67 33 0 12 -10 14 -49 9 -45 -5 -76 5 -101 32 -3 3 -17 13 -32 21 -74 42 -277 241 -278 273 0 4 -11 19 -24 32 -13 13 -30 37 -37 54 -8 17 -17 31 -21 31 -5 0 -8 7 -8 15 0 8 -4 15 -10 15 -5 0 -13 12 -16 28 -4 15 -13 36 -20 47 -33 51 -84 222 -84 280 0 19 -4 36 -9 39 -17 11 -20 150 -6 258 18 135 42 216 100 334 25 50 45 103 45 117 0 24 -4 27 -33 27 -20 0 -53 -13 -87 -36z"></path>
			<path id="pZWjNNuWS" d="M2827 2648 c52 -68 77 -97 81 -93 9 8 -60 105 -75 105 -11 0 -13 -4 -6 -12z"></path>
			<path id="ppTOISnqz" d="M400 1891 c0 -75 65 -381 81 -381 5 0 9 -10 9 -23 0 -39 31 -117 46 -117 9 0 14 -12 14 -35 0 -19 5 -35 10 -35 6 0 10 -11 10 -25 0 -14 5 -25 10 -25 6 0 10 -9 10 -20 0 -13 7 -20 20 -20 15 0 20 -7 20 -30 0 -32 19 -80 32 -80 4 0 8 -7 8 -15 0 -9 9 -15 25 -15 14 0 25 3 25 6 0 3 -18 37 -41 75 -112 193 -192 412 -224 619 -9 52 -18 107 -21 123 -8 37 -34 36 -34 -2z"></path>
			<path id="pXoz6GtQB" d="M2560 1885 c0 -30 3 -30 41 -8 38 23 37 33 -6 33 -31 0 -35 -3 -35 -25z"></path>
			<path id="p5oh2Ui19" d="M2470 1835 c0 -8 -9 -15 -20 -15 -13 0 -20 -7 -20 -20 0 -13 -7 -20 -20 -20 -28 0 -60 -30 -60 -57 0 -16 -6 -23 -20 -23 -16 0 -20 -7 -20 -35 0 -42 10 -44 32 -7 17 28 92 101 163 159 l40 32 -37 0 c-27 1 -38 -3 -38 -14z"></path>
			<path id="p92DS2mX3" d="M2800 1510 c0 -23 29 -27 48 -8 19 19 14 28 -18 28 -23 0 -30 -4 -30 -20z"></path>
			<path id="px8ZDXRCD" d="M2623 1513 c-71 -3 -93 -7 -93 -18 0 -14 -97 -125 -110 -125 -4 0 -26 -18 -48 -40 -22 -22 -49 -40 -61 -40 -12 0 -21 -6 -21 -15 0 -14 -75 -55 -100 -55 -7 0 -24 -6 -38 -14 -15 -8 -54 -23 -87 -33 -58 -18 -60 -20 -63 -55 -3 -34 1 -39 69 -94 65 -52 191 -117 269 -138 20 -6 18 -3 -10 15 -133 85 -170 112 -163 119 4 4 24 13 43 20 196 74 369 208 480 372 32 47 53 69 73 73 42 10 35 35 -10 33 -21 -1 -80 -4 -130 -5z"></path>
			<path id="p8WMyX7nR" d="M750 985 c0 -24 5 -35 15 -35 8 0 15 -9 15 -20 0 -13 7 -20 20 -20 15 0 20 -7 20 -25 0 -21 5 -25 31 -25 24 0 29 3 22 13 -6 6 -34 42 -62 80 -29 37 -55 67 -57 67 -2 0 -4 -16 -4 -35z"></path>
		</g>
	</g>
	<g id="l66OAt8lh11ShfndCZS9Ycl" fill="rgb(86,94,123)" style="transform: none;">
		<g style="transform: none;">
			<path id="p1HpogK5jK" d="M1358 3113 c-36 -9 -20 -33 22 -33 33 0 40 3 40 20 0 20 -20 24 -62 13z"></path>
			<path id="p13uQTSIl3" d="M1670 3100 c0 -17 7 -20 45 -20 49 0 64 23 23 34 -45 12 -68 7 -68 -14z"></path>
			<path id="ptccjY6na" d="M1186 3090 c-149 -31 -306 -88 -306 -110 0 -18 47 -10 167 29 66 22 156 45 201 53 67 10 82 16 82 30 0 23 -27 23 -144 -2z"></path>
			<path id="ph02RCBIG" d="M1780 3091 c0 -16 11 -19 73 -25 164 -16 453 -93 569 -152 26 -13 52 -24 57 -24 11 0 164 -87 213 -121 49 -35 197 -181 204 -202 3 -10 8 -16 11 -13 11 10 -65 113 -133 180 -180 178 -453 296 -830 356 -154 25 -164 25 -164 1z"></path>
			<path id="pxH3Z89qr" d="M734 2909 c-224 -147 -370 -379 -409 -654 -20 -138 -20 -155 5 -155 16 0 20 7 20 33 0 136 85 383 175 509 19 26 35 50 35 51 0 8 124 127 132 127 4 0 13 9 20 20 7 11 18 20 25 20 7 0 13 5 13 10 0 6 7 10 15 10 8 0 15 4 15 9 0 5 11 12 25 15 18 5 25 13 25 31 0 14 -4 25 -9 25 -5 0 -44 -23 -87 -51z"></path>
			<path id="p8BVgwc86" d="M2165 2003 c-390 -362 -440 -423 -440 -548 0 -59 5 -80 32 -135 18 -36 48 -83 67 -105 l35 -40 1 38 c0 26 -4 37 -15 37 -8 0 -15 9 -15 19 0 11 -4 21 -8 23 -4 2 -20 32 -36 66 -22 51 -27 73 -22 106 10 63 59 139 152 236 46 48 84 92 84 99 0 6 8 11 18 11 10 0 51 34 91 75 40 41 76 75 80 75 12 0 121 115 121 128 0 7 9 12 20 12 16 0 20 7 20 35 0 19 -1 35 -3 35 -1 0 -84 -75 -182 -167z"></path>
			<path id="pxGoDzO3x" d="M314 1848 c35 -324 166 -634 373 -883 56 -67 58 -68 61 -41 5 39 -4 56 -28 56 -15 0 -20 7 -20 25 0 14 -7 28 -15 31 -8 4 -15 13 -15 20 0 8 -7 17 -15 20 -8 4 -15 12 -15 18 0 7 -9 22 -20 34 -11 12 -20 26 -20 32 0 5 -4 10 -10 10 -5 0 -10 6 -10 14 0 8 -6 21 -13 28 -6 7 -34 60 -62 118 -27 58 -52 107 -55 110 -16 14 -88 312 -96 394 -6 67 -9 76 -27 76 -18 0 -19 -4 -13 -62z"></path>
			<path id="pHxxVn53x" d="M2292 1613 c3 -47 4 -48 53 -67 43 -17 73 -20 210 -19 88 0 182 5 208 10 48 11 48 11 54 -18 4 -24 8 -27 24 -19 14 8 17 18 12 48 -3 20 -7 39 -9 41 -1 2 -45 -4 -97 -13 -126 -21 -296 -20 -362 2 -46 16 -50 19 -50 50 0 27 -3 32 -23 32 -21 0 -23 -4 -20 -47z"></path>
			<path id="p19lfPiMny" d="M1491 1308 c-1 -11 -9 -18 -21 -18 -14 0 -20 -7 -20 -21 0 -19 4 -21 31 -15 17 3 40 6 50 6 17 0 18 3 7 20 -7 11 -18 20 -25 20 -6 0 -14 6 -16 13 -3 7 -6 5 -6 -5z"></path>
			<path id="pFk5whS4j" d="M1910 1125 c33 -35 196 -140 273 -175 84 -39 174 -74 162 -62 -27 26 -210 132 -226 132 -10 0 -19 7 -19 15 0 10 -10 15 -30 15 -23 0 -30 4 -30 20 0 11 -7 20 -15 20 -8 0 -15 5 -15 10 0 6 -6 10 -13 10 -7 0 -18 9 -25 20 -8 14 -23 20 -49 20 l-36 0 23 -25z"></path>
			<path id="phCfC7ZO2" d="M1448 1087 c-68 -29 -130 -77 -169 -130 -42 -58 -35 -65 17 -17 178 164 480 104 581 -116 29 -64 43 -153 32 -203 -10 -44 -3 -53 12 -15 72 189 -8 388 -191 473 -80 37 -203 41 -282 8z"></path>
			<path id="psrPTB0gt" d="M850 835 c0 -39 14 -46 30 -14 14 25 6 49 -15 49 -11 0 -15 -10 -15 -35z"></path>
		</g>
	</g>
	<g id="l6EJ0ABviNKKr1BGMZNuP2r" fill="rgb(53,75,141)" style="transform: none;">
		<g style="transform: none;">
			<path id="pj6GL6vQk" d="M1930 3071 c0 -18 39 -31 98 -31 44 0 23 28 -28 39 -67 14 -70 14 -70 -8z"></path>
			<path id="pYvWXoG9M" d="M1118 3073 c-33 -8 -20 -33 17 -33 28 0 35 4 35 20 0 20 -14 23 -52 13z"></path>
			<path id="pPgOmFxnN" d="M2120 3030 c0 -11 7 -20 15 -20 10 0 15 -10 15 -34 0 -28 6 -38 39 -59 62 -41 181 -166 234 -245 41 -62 75 -128 161 -317 18 -39 37 -272 29 -352 -5 -58 -8 -64 -39 -82 -19 -11 -34 -25 -34 -31 0 -5 -7 -10 -15 -10 -8 0 -15 -4 -15 -10 0 -5 -7 -10 -15 -10 -8 0 -15 -7 -15 -15 0 -8 -9 -15 -20 -15 -16 0 -20 -7 -20 -30 0 -28 -3 -30 -35 -30 -23 0 -35 -5 -35 -14 0 -7 -9 -16 -20 -19 -12 -3 -20 -14 -20 -26 0 -12 -6 -21 -15 -21 -10 0 -15 -11 -15 -35 0 -43 14 -45 34 -6 28 53 120 133 261 226 77 50 147 100 155 109 26 32 15 239 -20 377 -48 186 -157 393 -273 517 l-21 23 40 -14 c39 -13 74 -12 74 2 0 10 -142 79 -173 85 -96 17 -187 43 -187 52 0 11 -30 24 -57 24 -7 0 -13 -9 -13 -20z"></path>
			<path id="p1EDizznhF" d="M853 2975 c-40 -20 -73 -41 -73 -46 0 -5 16 -9 35 -9 24 0 35 5 35 15 0 10 10 15 28 15 38 0 54 13 50 39 -3 22 -4 22 -75 -14z"></path>
			<path id="pBCuRNgXq" d="M1000 2954 c-89 -30 -220 -102 -220 -121 0 -7 -9 -13 -20 -13 -13 0 -20 -7 -20 -20 0 -14 -7 -20 -23 -20 -29 0 -97 -68 -97 -98 0 -16 -6 -22 -21 -22 -12 0 -23 -8 -26 -20 -3 -11 -9 -20 -14 -20 -5 0 -9 -13 -9 -30 0 -22 -5 -30 -18 -30 -17 0 -42 -36 -42 -61 0 -6 -7 -17 -15 -25 -16 -17 -21 -84 -5 -84 5 0 28 37 50 82 23 45 61 107 85 138 54 70 180 188 232 217 l39 21 -42 -85 c-53 -106 -86 -212 -101 -325 -11 -81 -7 -306 6 -321 6 -8 8 -16 5 -19 -12 -13 55 -241 89 -303 6 -11 12 -22 12 -25 4 -22 18 -50 26 -50 5 0 9 -7 9 -15 0 -8 4 -15 10 -15 5 0 9 -3 8 -7 -2 -8 30 -63 43 -73 3 -3 8 -10 10 -16 10 -28 134 -163 210 -229 54 -47 109 -86 109 -78 0 4 4 3 8 -3 15 -22 58 -44 86 -44 16 0 58 5 93 11 48 8 63 15 63 28 0 9 -40 44 -90 80 -49 35 -99 74 -111 87 -12 13 -30 24 -40 24 -26 0 -173 154 -235 246 -76 115 -122 220 -151 349 -50 216 -29 410 64 599 35 71 113 183 158 225 17 16 25 34 25 57 0 32 -2 34 -32 34 -18 0 -67 -12 -108 -26z"></path>
			<path id="pE8ONIHLX" d="M2550 2862 c0 -8 71 -52 84 -52 15 0 4 30 -16 44 -24 17 -68 22 -68 8z"></path>
			<path id="p5C5zGhPm" d="M2668 2787 c6 -7 32 -28 57 -46 56 -40 63 -17 8 28 -38 31 -87 45 -65 18z"></path>
			<path id="pPwnIF5Cf" d="M2780 2708 c0 -7 21 -34 47 -58 l46 -45 -33 48 c-41 58 -60 76 -60 55z"></path>
			<path id="pAYByhu9Q" d="M440 2583 c-8 -16 -16 -31 -18 -35 -2 -5 8 -8 22 -8 23 0 26 4 26 35 0 42 -12 45 -30 8z"></path>
			<path id="pHxqpvUWR" d="M356 2378 c-10 -38 -7 -48 14 -48 16 0 20 7 20 35 0 40 -24 49 -34 13z"></path>
			<path id="p12eDqMZgq" d="M421 2337 c-6 -24 -13 -69 -17 -100 -6 -47 -4 -57 8 -57 10 0 22 30 39 100 l25 100 -22 0 c-17 0 -24 -9 -33 -43z"></path>
			<path id="pMYIZltqM" d="M326 2228 c-10 -38 -7 -48 14 -48 16 0 20 7 20 35 0 40 -24 49 -34 13z"></path>
			<path id="puQlQUAxZ" d="M390 2055 c0 -98 1 -105 20 -105 19 0 20 7 20 105 0 98 -1 105 -20 105 -19 0 -20 -7 -20 -105z"></path>
			<path id="pV4dyJy0L" d="M316 2134 c-12 -32 -6 -54 14 -54 16 0 20 7 20 35 0 37 -22 49 -34 19z"></path>
			<path id="pHnd9n1CB" d="M404 1843 c3 -32 13 -97 22 -145 14 -74 19 -88 35 -88 23 0 23 -9 0 114 -11 55 -22 118 -26 139 -4 25 -11 37 -22 37 -13 0 -15 -9 -9 -57z"></path>
			<path id="pYYjeZ2Sm" d="M330 1748 c0 -30 13 -58 26 -58 9 0 14 12 14 35 0 28 -4 35 -20 35 -11 0 -20 -6 -20 -12z"></path>
			<path id="p1BGlnsKdz" d="M350 1658 c0 -30 13 -58 26 -58 9 0 14 12 14 35 0 28 -4 35 -20 35 -11 0 -20 -6 -20 -12z"></path>
			<path id="ppONXEWJt" d="M370 1578 c0 -30 13 -58 26 -58 9 0 14 12 14 35 0 28 -4 35 -20 35 -11 0 -20 -6 -20 -12z"></path>
			<path id="ptPwWdzPa" d="M2340 1564 c0 -21 5 -24 35 -24 22 0 35 5 35 13 0 8 -16 18 -35 24 -33 11 -35 10 -35 -13z"></path>
			<path id="pIqTWM0AY" d="M2798 1583 c-22 -5 -24 -33 -3 -33 8 0 15 -4 15 -10 0 -5 -7 -10 -15 -10 -8 0 -15 -9 -15 -20 0 -14 7 -20 23 -20 38 0 49 14 45 56 -4 39 -14 47 -50 37z"></path>
			<path id="pCRdl89Jx" d="M470 1535 c0 -19 5 -35 10 -35 6 0 10 -13 10 -30 0 -25 4 -30 24 -30 l24 0 -21 65 c-23 71 -47 87 -47 30z"></path>
			<path id="p7g56z1Um" d="M2698 1563 c-33 -8 -20 -33 17 -33 28 0 35 4 35 20 0 20 -14 23 -52 13z"></path>
			<path id="pIWGQaGez" d="M2440 1545 c0 -9 -9 -15 -25 -15 -14 0 -25 -3 -25 -7 0 -12 -60 -69 -110 -107 -89 -66 -217 -122 -320 -141 -66 -12 -70 -15 -70 -47 0 -17 7 -40 17 -50 15 -17 15 -18 -8 -18 -23 -1 -23 -2 11 -31 21 -18 36 -25 39 -18 2 6 25 -12 52 -41 36 -39 52 -50 67 -46 14 5 21 1 25 -14 4 -16 13 -20 44 -19 l38 0 -44 37 c-24 20 -58 49 -75 64 l-31 27 30 11 c29 11 40 14 86 25 12 2 27 9 33 15 7 5 16 7 19 3 4 -3 7 -1 7 6 0 7 3 10 8 7 12 -7 117 49 115 62 -2 6 3 9 10 6 26 -10 237 190 230 217 -2 5 6 9 18 9 36 0 15 24 -29 34 -23 5 -42 14 -42 21 0 7 -10 15 -22 19 -36 9 -48 7 -48 -9z"></path>
			<path id="p2OUbOmOc" d="M2608 1553 c-31 -8 -21 -33 12 -33 23 0 30 -4 30 -20 0 -16 7 -20 38 -20 52 0 82 10 82 26 0 10 -15 14 -55 14 -48 0 -55 2 -55 20 0 20 -14 23 -52 13z"></path>
			<path id="p9HZBQ7BN" d="M408 1453 c20 -54 42 -68 42 -26 0 52 -11 73 -36 73 l-24 0 18 -47z"></path>
			<path id="prtpp9fOP" d="M520 1396 c0 -19 7 -41 15 -50 8 -8 15 -24 15 -35 0 -11 7 -26 15 -35 8 -8 15 -22 15 -30 0 -9 5 -16 10 -16 6 0 10 -7 10 -15 0 -32 23 -65 47 -65 12 0 23 2 23 5 0 3 -18 40 -39 83 -22 42 -51 103 -65 135 -28 64 -46 73 -46 23z"></path>
			<path id="p13iwkM9Lk" d="M1743 1358 c19 -46 37 -48 37 -4 0 32 -3 36 -25 36 -24 0 -25 -1 -12 -32z"></path>
			<path id="pR5oubLWE" d="M1830 1210 c31 -44 40 -45 40 -6 0 33 -2 36 -31 36 l-30 0 21 -30z"></path>
			<path id="pBqCghNol" d="M680 1085 c0 -19 5 -35 10 -35 22 0 8 -29 -15 -32 l-26 -3 30 -35 30 -35 2 40 c1 22 3 32 6 23 3 -11 14 -18 29 -18 21 0 24 -5 24 -35 0 -28 4 -35 20 -35 15 0 20 -7 20 -25 0 -21 5 -25 31 -25 l32 0 -27 33 c-14 17 -54 73 -88 124 -35 51 -66 92 -70 93 -5 0 -8 -16 -8 -35z"></path>
			<path id="pMmlG6xkU" d="M2220 946 c0 -11 96 -57 118 -56 9 1 -101 69 -110 70 -5 0 -8 -6 -8 -14z"></path>
			<path id="p1Bsw364FD" d="M833 836 c-9 -11 -8 -17 6 -30 24 -22 27 -21 40 14 9 27 8 30 -12 30 -12 -1 -27 -7 -34 -14z"></path>
		</g>
	</g>
	<g id="l2Nu8yRlEZEYW47hNqpnSoX" fill="rgb(43,64,133)" style="transform: none;">
		<g style="transform: none;">
			<path id="pSr6m32L" d="M1378 3113 c-33 -8 -20 -33 17 -33 28 0 35 4 35 20 0 20 -14 23 -52 13z"></path>
			<path id="pIB5DIr66" d="M1660 3100 c0 -16 7 -20 35 -20 40 0 49 24 13 34 -38 10 -48 7 -48 -14z"></path>
			<path id="pKf2R6ZQr" d="M1290 3105 c-8 -2 -32 -6 -52 -10 -26 -4 -38 -11 -38 -22 0 -13 8 -15 53 -9 28 3 62 6 75 6 15 0 22 6 22 20 0 20 -17 24 -60 15z"></path>
			<path id="p1FsXTbJh" d="M1760 3090 c0 -17 7 -20 40 -20 45 0 57 23 18 34 -42 11 -58 7 -58 -14z"></path>
			<path id="p13uWtGe5o" d="M1850 3081 c0 -17 -14 -19 -207 -24 -214 -5 -367 -23 -508 -57 -99 -25 -195 -60 -195 -71 0 -5 -11 -9 -24 -9 -14 0 -31 -6 -38 -14 -8 -7 -24 -17 -36 -20 -12 -4 -22 -12 -22 -17 0 -5 -7 -9 -15 -9 -8 0 -15 -4 -15 -10 0 -5 -7 -10 -15 -10 -9 0 -18 -7 -21 -15 -4 -8 -12 -15 -19 -15 -20 0 -37 -27 -33 -54 3 -25 4 -24 73 29 76 60 200 125 282 149 51 14 52 14 40 -5 -6 -10 -15 -19 -19 -19 -15 0 -117 -146 -151 -215 -67 -136 -93 -260 -91 -435 2 -265 108 -524 291 -715 61 -64 168 -154 143 -120 -8 11 6 1 32 -21 49 -42 192 -144 202 -144 3 0 6 7 6 15 0 8 -9 15 -20 15 -15 0 -20 7 -20 25 0 22 -4 25 -35 25 -31 0 -35 3 -35 25 0 14 -7 28 -16 32 -23 8 -156 148 -209 218 -61 82 -131 224 -154 317 -55 215 -31 363 83 515 107 142 272 226 503 259 132 18 265 10 441 -26 206 -42 419 -169 514 -308 67 -98 27 -163 -223 -359 -57 -45 -189 -155 -293 -245 -228 -197 -241 -216 -241 -350 0 -49 -3 -88 -7 -88 -5 0 -8 9 -8 20 0 15 -7 20 -25 20 -23 0 -24 -2 -14 -27 15 -40 55 -108 73 -123 14 -10 16 -10 16 6 0 15 7 11 30 -16 23 -29 26 -36 13 -40 -11 -4 3 -21 48 -58 l64 -52 6 27 7 28 1 -26 c1 -34 45 -70 143 -120 66 -33 174 -79 187 -79 2 0 -36 25 -85 56 -123 77 -187 127 -268 208 -74 74 -74 78 -1 90 103 18 234 75 325 142 61 46 62 46 91 81 25 30 26 30 85 22 61 -9 204 -10 236 -1 33 8 21 32 -17 32 -28 0 -35 4 -35 20 0 11 -6 20 -12 20 -30 0 -58 -13 -58 -26 0 -20 -74 -18 -94 1 -8 9 -41 20 -73 26 -32 6 -70 18 -86 26 -24 12 -28 19 -22 40 13 52 57 96 232 231 23 17 52 37 65 43 24 11 24 11 22 167 -4 218 -9 279 -28 315 -8 18 -38 80 -65 139 -27 59 -71 140 -98 180 -53 79 -172 204 -234 245 -22 14 -38 28 -35 30 2 2 41 -5 86 -17 214 -55 383 -145 524 -279 38 -36 63 -55 57 -43 -20 39 -141 155 -206 199 -111 75 -330 173 -385 173 -16 0 -30 5 -32 12 -2 6 -21 12 -41 12 -20 1 -37 4 -37 8 0 13 -114 31 -118 19 -2 -6 -27 -11 -58 -11 -46 0 -54 3 -54 19 0 11 -9 21 -22 25 -38 10 -48 7 -48 -13z"></path>
			<path id="pISkFGNFQ" d="M943 3015 c-43 -18 -42 -35 2 -35 31 0 35 3 35 25 0 14 -1 25 -2 25 -2 -1 -18 -7 -35 -15z"></path>
			<path id="pkRed1RPh" d="M778 2932 c-42 -26 -96 -64 -120 -84 l-43 -37 38 -1 c30 0 37 3 37 20 0 15 7 20 25 20 14 0 25 5 25 10 0 6 7 10 15 10 8 0 15 5 15 10 0 6 7 10 15 10 8 0 15 9 15 20 0 16 7 20 35 20 31 0 35 3 35 25 0 14 -3 25 -7 25 -5 0 -43 -22 -85 -48z"></path>
			<path id="pKH8O8Dud" d="M553 2748 c-29 -31 -103 -139 -103 -150 0 -4 11 -8 25 -8 16 0 25 6 25 15 0 8 5 15 10 15 6 0 10 7 10 15 0 8 5 15 10 15 6 0 10 8 10 19 0 10 9 21 20 24 15 4 20 14 20 41 0 20 -1 36 -3 36 -2 0 -13 -10 -24 -22z"></path>
			<path id="pRxBaE9wc" d="M602 2688 c-7 -7 -12 -20 -12 -30 0 -10 -7 -18 -15 -18 -8 0 -15 -7 -15 -15 0 -8 -4 -15 -10 -15 -5 0 -10 -7 -10 -15 0 -8 -4 -15 -10 -15 -5 0 -10 -7 -10 -15 0 -8 -4 -15 -9 -15 -13 0 -71 -137 -92 -218 -10 -41 -22 -110 -25 -153 -6 -68 -5 -79 9 -79 17 0 22 19 32 115 15 140 93 307 211 453 l27 32 -30 0 c-16 0 -34 -5 -41 -12z"></path>
			<path id="pwngfIxwX" d="M401 2503 c-32 -62 -74 -248 -87 -390 -6 -70 -5 -73 15 -73 19 0 21 6 22 53 0 81 45 316 62 328 14 10 22 99 9 99 -6 0 -15 -8 -21 -17z"></path>
			<path id="pJUNeB7Zl" d="M2295 2119 l-39 -39 37 0 c41 0 51 12 45 53 -3 25 -3 25 -43 -14z"></path>
			<path id="p1n4tNSOc" d="M393 1928 c3 -46 11 -118 18 -160 10 -67 14 -78 31 -78 17 0 19 5 15 28 -3 15 -11 72 -17 127 -19 161 -20 165 -37 165 -14 0 -15 -11 -10 -82z"></path>
			<path id="pfKLUywVj" d="M2140 1972 l-45 -41 36 -1 c43 0 62 18 57 56 l-3 26 -45 -40z"></path>
			<path id="pH2sWymit" d="M310 1913 c0 -34 12 -63 26 -63 10 0 14 13 14 40 0 33 -3 40 -20 40 -12 0 -20 -7 -20 -17z"></path>
			<path id="ppxUlhqBV" d="M1980 1822 l-45 -41 36 -1 c43 0 62 18 57 56 l-3 26 -45 -40z"></path>
			<path id="par4zIEkW" d="M320 1823 c0 -34 12 -63 26 -63 10 0 14 13 14 40 0 33 -3 40 -20 40 -12 0 -20 -7 -20 -17z"></path>
			<path id="pZDIoDmo" d="M340 1698 c0 -30 13 -58 26 -58 9 0 14 12 14 35 0 28 -4 35 -20 35 -11 0 -20 -6 -20 -12z"></path>
			<path id="pcnclH0Oo" d="M1811 1648 c-69 -94 -88 -148 -52 -148 13 0 25 14 38 45 10 25 21 45 26 45 4 0 7 9 7 20 0 11 7 20 15 20 10 0 15 11 15 35 0 19 -2 35 -5 35 -2 0 -22 -24 -44 -52z"></path>
			<path id="p19aGj8mfP" d="M440 1642 c0 -37 38 -166 50 -170 6 -2 10 -17 10 -33 0 -24 4 -29 24 -29 l25 0 -24 68 c-13 37 -31 95 -41 130 -17 65 -44 86 -44 34z"></path>
			<path id="phZ1ieIbe" d="M2783 1578 c-55 -12 -59 -37 -5 -39 30 -2 32 -3 10 -6 -20 -3 -28 -10 -28 -24 0 -20 10 -23 58 -13 29 6 31 9 29 47 -3 46 -7 48 -64 35z"></path>
			<path id="p17yAE8lW9" d="M380 1548 c0 -30 13 -58 26 -58 9 0 14 12 14 35 0 28 -4 35 -20 35 -11 0 -20 -6 -20 -12z"></path>
			<path id="pEbAD3mk7" d="M443 1368 c19 -46 37 -48 37 -4 0 32 -3 36 -25 36 -24 0 -25 -1 -12 -32z"></path>
			<path id="p70eHnoT2" d="M530 1368 c0 -43 12 -61 38 -56 l21 3 -19 43 c-23 50 -40 54 -40 10z"></path>
			<path id="p1GQofUoH2" d="M580 1255 c0 -31 3 -35 25 -35 29 0 30 2 10 40 -21 40 -35 38 -35 -5z"></path>
			<path id="ptplq8vBV" d="M500 1252 c0 -19 116 -192 188 -282 71 -88 77 -93 80 -67 4 33 19 36 24 5 2 -15 11 -24 26 -26 27 -4 31 -42 5 -42 -14 -1 -12 -6 11 -26 l29 -26 13 32 c13 31 13 34 -30 83 -48 57 -138 188 -176 255 -13 23 -27 42 -32 42 -14 0 -9 -68 7 -84 8 -8 15 -19 15 -25 0 -6 7 -11 15 -11 9 0 15 -9 15 -25 0 -14 5 -25 10 -25 6 0 10 -4 10 -10 0 -5 -7 -10 -15 -10 -9 0 -15 9 -15 25 0 16 -6 25 -15 25 -8 0 -15 9 -15 20 0 11 -4 20 -10 20 -5 0 -10 7 -10 15 0 8 -4 15 -10 15 -5 0 -10 7 -10 15 0 8 -4 15 -10 15 -5 0 -10 7 -10 15 0 8 -7 15 -15 15 -8 0 -15 9 -15 19 0 35 -12 51 -36 51 -13 0 -24 -4 -24 -8z m240 -272 c0 -11 -4 -20 -10 -20 -5 0 -10 9 -10 20 0 11 5 20 10 20 6 0 10 -9 10 -20z"></path>
		</g>
	</g>
	<g id="l23D57lXASy1Kh10gi5u1R1" fill="rgb(166,30,34)" style="transform: none;">
		<g style="transform: none;">
			<path id="pNmhgGnER" d="M1561 2735 c-218 -34 -384 -121 -487 -258 -107 -142 -136 -289 -99 -502 38 -217 161 -419 357 -588 104 -89 162 -127 194 -127 24 0 16 11 -81 103 -171 162 -278 323 -316 477 -21 82 -18 309 5 385 49 170 134 291 251 360 54 31 182 72 286 90 225 40 487 -4 635 -105 l44 -31 0 31 c0 16 -4 30 -9 30 -6 0 -22 11 -36 24 -93 86 -505 147 -744 111z"></path>
			<path id="p1EpaPxPSH" d="M2372 2205 l-22 -35 30 0 c28 0 30 3 30 35 0 44 -9 44 -38 0z"></path>
		</g>
	</g>
	<g id="l4kfPdOngnbC6SBKst9Jb3H" fill="rgb(34,36,90)" style="transform: none;">
		<g style="transform: none;">
			<path id="p1HV1rXTj0" d="M1305 3104 c-561 -75 -902 -379 -973 -869 -58 -393 27 -779 245 -1110 94 -142 252 -325 282 -325 4 0 13 11 19 24 9 20 5 30 -34 77 -165 199 -306 482 -369 736 -115 465 -50 803 204 1066 203 211 494 309 961 324 507 16 889 -97 1160 -342 l44 -40 -44 54 c-93 111 -278 226 -476 294 -297 103 -728 150 -1019 111z"></path>
			<path id="p12kNj6rlL" d="M2144 2674 c38 -19 81 -43 95 -53 14 -10 55 -33 91 -52 36 -19 69 -40 73 -46 4 -7 12 -13 16 -13 10 0 141 -131 141 -142 0 -4 4 -8 10 -8 5 0 12 -16 16 -35 9 -48 -22 -107 -90 -174 l-55 -54 -39 32 c-49 38 -57 38 -90 3 -15 -15 -125 -119 -245 -231 -226 -212 -269 -261 -312 -352 -47 -102 -27 -197 71 -330 76 -104 277 -239 464 -311 33 -12 31 -11 -90 70 -122 81 -208 154 -275 232 -71 83 -89 124 -90 200 0 109 22 139 241 328 104 90 236 200 293 245 198 155 245 209 257 299 8 57 -12 101 -79 175 -89 96 -220 177 -371 228 -103 35 -113 31 -32 -11z"></path>
			<path id="plhHr3rH5" d="M964 2130 c0 -52 1 -74 3 -47 2 26 2 68 0 95 -2 26 -3 4 -3 -48z"></path>
			<path id="p1lB77N9g" d="M2330 1580 c0 -18 47 -56 87 -69 45 -16 289 -26 368 -16 l55 6 0 46 c0 39 -2 44 -17 38 -10 -3 -63 -13 -118 -22 -119 -18 -272 -13 -329 11 -45 19 -46 19 -46 6z"></path>
		</g>
	</g>
	<g id="l2A7Ik724ASXxDBcrDOMpEd" fill="rgb(34,30,32)" style="transform: none;">
		<g style="transform: none;">
			<path id="pTY9PV7d9" d="M2156 2669 c185 -98 267 -194 268 -314 0 -68 -25 -128 -77 -182 -17 -18 -29 -34 -26 -36 2 -2 30 -23 61 -46 l57 -43 28 20 c47 33 123 120 139 157 24 58 18 126 -14 171 -82 113 -244 225 -403 279 -96 33 -104 31 -33 -6z"></path>
		</g>
	</g>
</svg>